<svg width="836" height="819" viewBox="0 0 836 819" fill="none" xmlns="http://www.w3.org/2000/svg">
<path d="M198.968 170.115C169.23 200.868 148.808 239.353 131.222 278.347C123.698 295.037 116.502 312.354 115.278 330.627C114.054 348.899 119.817 368.605 134.178 379.981C154.063 395.715 185.771 392.759 202.133 412.137C214.703 427.065 212.613 450.115 203.058 467.104C193.474 484.092 177.948 496.722 163.617 509.979C146.33 525.982 130.117 543.956 121.011 565.662C111.904 587.398 110.919 613.583 123.131 633.706C139.881 661.265 175.381 670.281 207.477 672.939C239.603 675.596 273.76 674.82 301.438 691.331C329.742 708.23 346.492 740.714 375.692 756.061C413.133 775.707 459.83 761.286 495.3 738.206C530.74 715.127 560.896 683.777 599.053 665.534C623.686 653.77 650.796 647.889 675.398 636.065C700 624.272 723.17 604.267 728.096 577.396C734.127 544.493 711.495 513.054 709.644 479.644C708.241 453.787 719.378 429.006 731.798 406.285C744.219 383.593 758.401 361.23 763.984 335.941C769.568 310.652 764.552 281.034 744.189 265.06C721.438 247.176 687.699 251.535 662.798 236.786C641.869 224.365 630.612 200.479 624.104 177.042C617.595 153.604 614.609 129.001 604.398 106.907C579.497 53.0449 514.379 25.5464 455.441 32.5032C398.891 39.1613 361.63 71.1084 318.247 103.832C280.926 132.047 234.498 133.39 198.968 170.115Z" fill="url(#paint0_linear)"/>
<path opacity="0.2" d="M655.275 570.559C616.341 552.256 577.676 527.355 534.652 528.55C500.764 529.475 469.623 546.703 441.348 565.393C413.073 584.084 385.456 605.044 353.12 615.165C320.755 625.287 281.583 622.092 258.354 597.37C238.439 576.142 233.393 542.971 210.403 525.146C196.161 514.129 177.351 511.262 159.318 514.069C143.672 529.057 129.371 545.777 121.041 565.692C111.934 587.428 110.949 613.613 123.161 633.736C139.91 661.295 175.411 670.311 207.507 672.969C239.633 675.626 273.79 674.85 301.467 691.361C329.772 708.26 346.522 740.744 375.722 756.091C413.163 775.737 459.86 761.316 495.33 738.236C530.8 715.157 560.926 683.807 599.083 665.564C623.716 653.8 650.826 647.919 675.428 636.095C696.239 626.123 716.004 610.299 724.573 589.428C701.135 588.533 676.652 580.621 655.275 570.559Z" fill="white"/>
<path opacity="0.2" d="M744.249 265.09C721.498 247.206 687.759 251.565 662.858 236.816C641.929 224.395 630.672 200.509 624.164 177.071C617.655 153.634 614.669 129.031 604.458 106.937C603.234 104.28 601.89 101.682 600.487 99.1443C593.799 120.283 585.618 140.825 574.541 160.023C552.387 198.33 516.528 231.113 472.967 238.846C434.69 245.623 396.085 232.665 357.808 225.948C316.187 218.662 272.625 218.842 232.438 231.859C192.25 244.847 155.645 271.51 135.342 308.562C127.609 322.685 122.354 337.912 117.458 353.288C120.294 363.738 125.758 373.322 134.208 379.981C148.181 391.028 167.946 392.849 184.129 399.656C184.218 399.567 184.308 399.477 184.427 399.388C198.102 386.31 220.614 390.192 229.034 407.151C234.976 419.064 242.141 430.2 251.964 439.128C269.132 454.713 296.929 461.162 315.59 447.398C325.891 439.784 331.623 427.633 339.625 417.63C347.597 407.598 360.555 399.089 372.647 403.359C388.202 408.823 391.158 430.738 405.102 439.516C417.91 447.577 435.198 441.516 446.842 431.813C458.456 422.109 467.205 409.121 479.745 400.612C492.255 392.103 511.303 389.714 521.216 401.149C530.681 412.107 527.038 429.394 533.667 442.263C544.564 463.431 577.915 461.192 595.202 444.771C612.46 428.349 618.879 403.986 627.896 381.921C636.883 359.857 652.05 336.986 675.518 332.836C705.554 327.522 731.44 356.035 741.263 384.937C741.592 385.922 741.92 386.907 742.219 387.893C751.415 371.322 760.043 354.423 764.134 336.031C769.628 310.712 764.582 281.094 744.249 265.09Z" fill="white"/>
<path d="M130.5 643C195.798 545.875 285.971 503.649 402.683 494.901C463.651 490.333 526.083 501.022 579.109 531.416C632.135 561.811 653.942 577.966 679.5 633.5C633 659.5 630 647.991 594.5 668C564.5 684.909 554.5 693.794 538.5 707C507 733 522.5 718.5 501 736C473.5 753 497.5 738.5 470 754C455.806 762 442.5 764.5 416 764.5C389.5 764.5 381.5 764.5 348.5 741.5C311.5 707 326.5 701 296 690.5C259.364 677.888 258.5 678.5 201 672.5C143.5 666.5 139 651 130.5 643Z" fill="#EF3041"/>
<path opacity="0.1" d="M579.109 531.446C526.083 501.051 463.622 490.363 402.683 494.931C350.553 498.842 299.527 513.92 253.189 538.044C255.129 552.794 263.28 567.155 276.955 572.529C291.465 578.232 309.111 573.037 322.547 580.949C340.998 591.787 339.715 618.957 351.329 636.931C361.451 652.636 382.709 660.1 400.414 654.218C411.969 650.367 421.792 641.619 433.824 639.767C451.291 637.08 466.996 649.322 482.73 657.353C522.112 677.447 572.123 671.416 608.608 646.456C628.135 633.109 643.839 614.926 655.305 594.235C633.598 569.245 607.802 547.867 579.109 531.446Z" fill="black"/>
<path d="M322.009 380.846C319.591 365.38 308.424 352.811 296.69 342.42C284.986 332.03 271.969 322.595 263.639 309.339C255.308 296.082 252.92 277.451 262.982 265.449C270.028 257.059 282.747 251.655 283.225 240.727C283.494 234.397 279.224 228.605 279.254 222.275C279.343 212.213 289.793 205.704 299.228 202.301C316.904 195.941 335.684 193.463 354.285 190.985C363.123 189.82 374.08 185.64 382.918 184.476C379.245 177.639 384.441 168.652 391.666 165.905C398.891 163.128 407.072 164.979 414.298 167.816C428.151 173.22 440.632 182.177 450.246 193.523C455.292 199.524 459.591 206.152 465.115 211.706C470.668 217.229 477.893 221.678 485.746 221.678C505.093 221.678 526.352 235.442 535.219 252.64C540.146 262.194 540.384 273.45 539.369 284.169C535.458 326.178 513.513 366.246 480.192 392.133C461.233 406.882 439.318 381.832 415.343 383.026C404.116 383.593 393.368 387.564 382.709 391.177C372.05 394.79 360.973 398.104 349.747 397.238C338.52 396.372 323.741 391.983 322.009 380.846Z" fill="black"/>
<path d="M365.81 427.662C366.198 462.356 366.586 497.051 366.944 531.745C390.263 548.823 423.583 548.763 448.514 534.103C449.798 498.334 447.976 463.461 449.29 427.692C419.075 419.362 395.129 416.675 365.81 427.662Z" fill="#EBB279"/>
<path opacity="0.1" d="M365.81 427.662C366.108 453.847 366.377 480.002 366.675 506.187C373.214 511.561 380.231 516.338 387.695 520.399C405.042 529.834 424.509 535.268 444.244 536.432C445.707 535.686 447.14 534.909 448.544 534.103C449.827 498.334 448.006 463.461 449.32 427.692C419.075 419.362 395.129 416.675 365.81 427.662Z" fill="black"/>
<path d="M335.803 394.133C322.039 393.357 309.32 384.997 301.587 373.621C296.959 366.814 293.854 358.633 294.511 350.392C295.168 342.181 300.034 334.03 307.678 330.925C315.321 327.82 325.383 330.985 328.727 338.509C336.49 356.005 341.894 375.98 335.803 394.133Z" fill="#D4A06D"/>
<path d="M316.754 336.867C308.305 340.39 302.632 349.735 303.468 358.872C304.961 355.946 307.857 352.781 310.813 351.348C309.648 362.275 314.993 374.278 324.935 378.906C323.92 376.756 324.069 372.158 324.846 369.859C325.592 367.59 326.846 365.53 327.981 363.41C331.086 357.438 333.026 350.482 331.265 343.973C329.503 337.464 322.965 334.299 316.754 336.867Z" fill="#AB8158"/>
<path d="M483.178 381.712C493.389 383.175 504.167 380.518 512.497 374.427C520.828 368.336 526.65 358.901 528.352 348.69C529.337 342.779 528.829 336.3 525.276 331.493C520.798 325.432 512.408 323.371 504.973 324.506C497.539 325.641 490.791 329.373 484.223 333.045C480.849 334.956 480.252 338.27 479.147 341.972C478.042 345.675 478.132 349.646 478.401 353.527C478.848 360.275 479.774 366.993 481.177 373.621C482.043 377.532 479.177 381.145 483.178 381.712Z" fill="#D4A06D"/>
<path d="M508.198 331.582C516.648 335.105 522.321 344.451 521.485 353.587C519.992 350.661 517.096 347.496 514.14 346.063C515.304 356.991 509.96 368.993 500.017 373.621C501.032 371.471 500.883 366.873 500.107 364.574C499.36 362.305 498.106 360.245 496.972 358.125C493.867 352.154 491.926 345.197 493.688 338.688C495.449 332.179 501.988 328.985 508.198 331.582Z" fill="#AB8158"/>
<path d="M504.466 317.728C501.57 364.335 494.464 413.182 466.07 450.294C454.665 465.193 436.5 469 412 471.5C383.5 468 370.258 467.82 354.882 447.04C340.64 427.812 331.952 404.852 327.354 381.384C322.756 357.916 322.069 333.821 322.696 309.906C323.413 282.676 338.49 252.013 362.525 239.234C386.56 226.455 415.313 225.739 442.274 229.501C454.485 231.202 467.115 234.009 476.52 241.981C486.97 250.848 491.717 264.672 494.255 278.138C496.823 291.544 505.332 304.054 504.466 317.728Z" fill="#EBB279"/>
<path d="M324.189 364.425C330.548 354.751 333.265 343.017 333.743 331.433C334.221 319.848 333.415 307.428 331.832 295.933C352.045 291.962 363.063 268.464 382.679 262.105C391.935 259.119 401.967 260.343 411.581 261.716C421.224 263.09 431.167 264.553 440.542 261.925C449.917 259.298 458.576 251.416 458.725 241.682C456.486 259.537 470.578 276.735 481.536 291.006C492.493 305.278 504.436 320.744 504.347 338.748C515.752 323.222 518.589 300.322 514.08 281.601C509.602 262.881 497.629 246.28 482.133 234.875C465.323 222.514 444.812 216.125 424.24 212.572C403.698 209.048 382.022 208.272 362.525 215.647C335.863 225.739 316.157 250.819 309.798 278.586C303.438 306.442 309.887 339.793 324.189 364.425Z" fill="black"/>
<path d="M399.727 333.344C397.667 337.016 395.517 340.808 395.099 344.988C394.681 349.168 396.562 353.915 400.473 355.468C404.355 357.021 408.983 354.871 411.431 351.467C413.909 348.093 414.686 343.764 415.133 339.614C415.641 334.717 415.79 329.701 414.387 324.984C413.611 322.356 409.64 313.459 405.818 317.579C404.534 318.982 404.355 323.551 403.609 325.461C402.563 328.208 401.16 330.806 399.727 333.344Z" fill="#C79666"/>
<path d="M381.764 317.263C385.573 317.879 389.401 313.8 390.316 308.152C391.23 302.503 388.883 297.424 385.074 296.808C381.265 296.192 377.436 300.271 376.522 305.919C375.608 311.568 377.955 316.646 381.764 317.263Z" fill="#473625"/>
<path d="M347.095 300.673C346.447 300.568 345.87 300.203 345.48 299.626C344.753 298.51 345.055 297.016 346.171 296.29C360.67 286.689 378.242 281.457 395.644 281.581C396.974 281.585 398.039 282.664 398.036 283.995C398.032 285.325 396.952 286.39 395.622 286.387C379.188 286.268 362.571 291.201 348.85 300.292C348.278 300.653 347.684 300.769 347.095 300.673Z" fill="#473625"/>
<path d="M438.874 316.557C442.695 316.022 445.149 310.994 444.355 305.327C443.561 299.661 439.82 295.501 435.999 296.037C432.177 296.572 429.723 301.6 430.517 307.266C431.311 312.933 435.052 317.092 438.874 316.557Z" fill="#473625"/>
<path d="M473.887 300.708C474.537 300.616 475.121 300.263 475.524 299.694C476.274 298.594 476.004 297.095 474.903 296.344C460.612 286.438 443.154 280.834 425.754 280.589C424.424 280.564 423.336 281.621 423.312 282.951C423.287 284.281 424.344 285.369 425.674 285.393C442.107 285.624 458.615 290.908 472.14 300.289C472.675 300.666 473.295 300.79 473.887 300.708Z" fill="#473625"/>
<path d="M408.535 412.137C393.905 412.137 379.484 405.926 369.482 395.178C368.586 394.193 368.616 392.67 369.601 391.774C370.587 390.878 372.109 390.908 373.005 391.894C382.679 402.284 396.921 408.016 411.103 407.24C425.285 406.464 438.81 399.179 447.29 387.773C448.096 386.698 449.589 386.489 450.664 387.266C451.738 388.072 451.947 389.565 451.171 390.64C441.856 403.18 426.987 411.151 411.401 412.017C410.416 412.107 409.461 412.137 408.535 412.137Z" fill="#782900"/>
<path d="M472.041 224.664C469.832 205.884 462.188 187.76 450.335 173.041C454.963 174.145 458.844 173.996 463.472 175.101C467.383 188.119 470.668 201.286 472.37 214.751C481.028 206.66 492.165 200.181 503.72 197.524C504.585 200.151 504.167 203.465 505.033 206.122C497.121 205.286 488.97 208.66 482.551 213.348C489.388 213.527 496.882 212.96 503.72 213.139C503.72 215.348 503.72 218.453 503.72 220.633C493.27 218.304 481.028 218.871 472.041 224.664Z" fill="black"/>
<path opacity="0.2" d="M338.042 336.389C336.132 337.912 334.37 339.644 333.265 341.793C332.161 343.943 331.832 346.6 332.847 348.81C334.43 352.243 338.52 353.557 342.222 354.274C347.806 355.319 353.508 355.766 359.181 355.557C363.72 355.408 368.377 354.811 372.438 352.781C376.499 350.75 379.962 347.048 380.738 342.57C384.59 320.774 346.761 329.462 338.042 336.389Z" fill="#A53900"/>
<path opacity="0.2" d="M488.522 336.389C490.433 337.912 492.195 339.644 493.299 341.793C494.404 343.943 494.733 346.6 493.717 348.81C492.135 352.243 488.045 353.557 484.342 354.274C478.759 355.319 473.056 355.766 467.383 355.557C462.845 355.408 458.187 354.811 454.127 352.781C450.066 350.75 446.603 347.048 445.826 342.57C441.975 320.774 479.804 329.462 488.522 336.389Z" fill="#A53900"/>
<path d="M493.06 300.68C489.388 323.73 490.881 347.586 497.42 369.978C507.87 351.915 515.394 331.702 516.767 310.861C517.096 306.024 511.303 302.71 506.735 301.128C502.137 299.516 497.061 297.903 493.06 300.68Z" fill="black"/>
<defs>
<linearGradient id="paint0_linear" x1="114.083" y1="398.393" x2="766.16" y2="398.393" gradientUnits="userSpaceOnUse">
<stop stop-color="#FA9A00"/>
<stop offset="1" stop-color="#FAD000"/>
</linearGradient>
</defs>
</svg>
