<svg width="413" height="342" viewBox="0 0 413 342" fill="none" xmlns="http://www.w3.org/2000/svg">
<path d="M329.072 45.1694C368.453 74.7054 404.88 110.639 411.525 151.497C417.925 192.354 394.296 237.888 364.76 271.608C335.225 305.574 300.028 327.479 263.601 336.34C226.928 345.201 189.516 341.263 146.69 333.386C104.11 325.51 56.361 313.942 28.302 282.437C0.00204468 251.179 -9.10995 199.984 10.335 164.787C29.535 129.837 77.035 110.639 114.448 80.8574C151.861 51.0754 178.933 10.7114 213.391 1.8514C247.849 -6.7646 289.937 15.8794 329.072 45.1694Z" fill="url(#paint0_linear)"/>
<defs>
<linearGradient id="paint0_linear" x1="206.29" y1="9.90052" x2="206.29" y2="341.397" gradientUnits="userSpaceOnUse">
<stop stop-color="#8EC5FC" stop-opacity="0.675"/>
<stop offset="1" stop-color="#E0C3FC" stop-opacity="0.675"/>
</linearGradient>
</defs>
</svg>
