<svg xmlns="http://www.w3.org/2000/svg" width="391.575" height="260.739" viewBox="0 0 391.575 260.739">
  <g id="_87_coding" data-name="#87_coding" transform="translate(-44.93 -44.049)">
    <rect id="Rectangle_75" data-name="Rectangle 75" width="46.439" height="11.779" transform="translate(218.267 215.246)" fill="#fff"/>
    <path id="Path_106" data-name="Path 106" d="M119.981,145.2s-1.637,39,2.745,51.855h20.013a4.825,4.825,0,0,1,4.6,3.409l1.083,3.582H97.53a31.053,31.053,0,0,1-9.428-9.76c-3.372-6.006-1.3-49.085-1.3-49.085Z" transform="translate(9.519 23.348)" fill="#fff"/>
    <path id="Path_107" data-name="Path 107" d="M148.545,204.777H97.65a.738.738,0,0,1-.332-.086,31.534,31.534,0,0,1-9.637-9.982c-3.459-6.154-1.465-47.658-1.379-49.418a.615.615,0,0,1,.615-.591H120.15a.591.591,0,0,1,.443.2.578.578,0,0,1,.172.455c0,.382-1.551,38.156,2.572,51.2h19.57a5.379,5.379,0,0,1,5.182,3.853l1.083,3.582a.6.6,0,0,1-.086.542A.628.628,0,0,1,148.545,204.777Zm-50.722-1.231h49.885l-.837-2.782a4.172,4.172,0,0,0-4.012-2.979H122.845a.6.6,0,0,1-.578-.418c-4.123-12.05-3-46.144-2.806-51.436h-32c-.714,15.016-1.342,43.6,1.231,48.175a30.536,30.536,0,0,0,9.133,9.44Z" transform="translate(9.4 23.233)" fill="#231f20"/>
    <path id="Path_108" data-name="Path 108" d="M89.53,186.8c0,8.123,2.462,10.56,5.686,10.56h12.776a4.3,4.3,0,0,1,4.025,2.819l1.415,3.853H93.739c-5.034,0-8.616-7.643-8.776-15.767s0-43.079,0-43.079h4.394S89.53,178.681,89.53,186.8Z" transform="translate(9.224 23.346)" fill="#231f20"/>
    <path id="Path_109" data-name="Path 109" d="M113.548,204.774H93.855c-5.674,0-9.231-8.32-9.391-16.37s0-42.734,0-43.079a.628.628,0,0,1,.615-.615h4.394a.628.628,0,0,1,.615.615c0,.332.16,33.577.16,41.614,0,9.945,3.816,9.945,5.071,9.945H108.1a4.923,4.923,0,0,1,4.6,3.225l1.415,3.852a.665.665,0,0,1-.074.566A.628.628,0,0,1,113.548,204.774ZM85.706,145.928c0,4.714-.148,35,0,42.451.172,8.357,3.828,15.164,8.16,15.164h18.795l-1.108-3.028a3.692,3.692,0,0,0-3.446-2.462H95.332c-4.234,0-6.3-3.692-6.3-11.176s-.135-36.4-.16-41Z" transform="translate(9.109 23.235)" fill="#231f20"/>
    <path id="Path_110" data-name="Path 110" d="M167.024,72.557l7.7,88.053a6.979,6.979,0,0,1-6.893,7.877H62.847a8.616,8.616,0,0,1-8.271-7.877l-7.7-88.053a6.966,6.966,0,0,1,6.893-7.877H158.753A8.616,8.616,0,0,1,167.024,72.557Z" transform="translate(0.434 4.762)" fill="#231f20"/>
    <path id="Path_111" data-name="Path 111" d="M167.949,169.219H62.96a9.256,9.256,0,0,1-8.887-8.443l-7.7-88.053a7.988,7.988,0,0,1,1.994-6.154,7.385,7.385,0,0,1,5.514-2.388H158.866a9.244,9.244,0,0,1,8.911,8.394l7.7,88.053a7.951,7.951,0,0,1-2.006,6.154,7.385,7.385,0,0,1-5.526,2.437ZM53.876,65.411a6.154,6.154,0,0,0-4.6,1.982A6.757,6.757,0,0,0,47.6,72.574l7.7,88.053a7.988,7.988,0,0,0,7.656,7.385H167.949a6.154,6.154,0,0,0,4.591-1.994,6.72,6.72,0,0,0,1.686-5.219l-7.68-88.078h0a7.976,7.976,0,0,0-7.656-7.311Z" transform="translate(0.322 4.647)" fill="#231f20"/>
    <path id="Path_112" data-name="Path 112" d="M166.292,72.2l7.385,84.065a6.659,6.659,0,0,1-6.573,7.52H66.878a8.234,8.234,0,0,1-7.9-7.52L51.591,72.2a6.646,6.646,0,0,1,6.573-7.52H158.414A8.234,8.234,0,0,1,166.292,72.2Z" transform="translate(1.524 4.762)" fill="#fff"/>
    <path id="Path_113" data-name="Path 113" d="M167.2,164.526H67.008a8.862,8.862,0,0,1-8.616-8.074L51.008,72.374a7.607,7.607,0,0,1,1.982-5.945,7.065,7.065,0,0,1,5.28-2.289H158.52a8.837,8.837,0,0,1,8.505,8.074h0l7.385,84.078a7.582,7.582,0,0,1-1.92,5.9,7.052,7.052,0,0,1-5.293,2.339ZM58.269,65.42A5.846,5.846,0,0,0,53.9,67.3a6.437,6.437,0,0,0-1.6,4.923L59.685,156.3a7.594,7.594,0,0,0,7.323,6.991H167.2a5.846,5.846,0,0,0,4.357-1.883,6.376,6.376,0,0,0,1.6-4.923L165.77,72.411a7.607,7.607,0,0,0-7.286-6.954Z" transform="translate(1.394 4.637)" fill="#231f20"/>
    <path id="Path_114" data-name="Path 114" d="M171.244,127.62l1.231,14.118a6.659,6.659,0,0,1-6.573,7.52H65.713a8.234,8.234,0,0,1-7.9-7.52L56.58,127.62Z" transform="translate(2.689 19.29)" fill="#fff"/>
    <path id="Path_115" data-name="Path 115" d="M166.036,149.989H65.847a8.862,8.862,0,0,1-8.616-8.074L56,127.8a.64.64,0,0,1,.16-.468.591.591,0,0,1,.455-.209H171.341a.628.628,0,0,1,.615.566l1.231,14.118a7.582,7.582,0,0,1-1.92,5.9,7.053,7.053,0,0,1-5.231,2.289ZM57.317,128.351,58.548,141.8a7.594,7.594,0,0,0,7.3,6.954H166.036a5.846,5.846,0,0,0,4.357-1.883,6.376,6.376,0,0,0,1.6-4.923l-1.231-13.539Z" transform="translate(2.555 19.175)" fill="#231f20"/>
    <ellipse id="Ellipse_21" data-name="Ellipse 21" cx="4.554" cy="5.022" rx="4.554" ry="5.022" transform="translate(110.923 156.106) rotate(-33.83)" fill="#fff"/>
    <path id="Path_116" data-name="Path 116" d="M105.329,142.941a5.957,5.957,0,0,1-5.723-5.44,5.145,5.145,0,0,1,1.3-4,4.776,4.776,0,0,1,3.569-1.551,5.945,5.945,0,0,1,5.711,5.44h0a5.157,5.157,0,0,1-1.231,4,4.788,4.788,0,0,1-3.631,1.551Zm-.849-9.76a3.594,3.594,0,0,0-2.671,1.145,3.976,3.976,0,0,0-.972,3.065,4.7,4.7,0,0,0,4.493,4.32,3.533,3.533,0,0,0,2.659-1.157,3.939,3.939,0,0,0,.985-3.052h0a4.7,4.7,0,0,0-4.493-4.259Z" transform="translate(12.614 20.29)" fill="#231f20"/>
    <path id="Path_117" data-name="Path 117" d="M58.725,69.24h98.368a4.283,4.283,0,0,1,4.1,3.914l5.182,59.3a3.459,3.459,0,0,1-3.409,3.926H64.6a4.3,4.3,0,0,1-4.1-3.926l-5.182-59.3a3.459,3.459,0,0,1,3.409-3.914Z" transform="translate(2.39 5.815)" fill="#231f20"/>
    <path id="Path_118" data-name="Path 118" d="M73.468,75.361H63.7a.615.615,0,0,1,0-1.231h9.773a.615.615,0,1,1,0,1.231Z" transform="translate(4.189 6.943)" fill="#fff"/>
    <path id="Path_119" data-name="Path 119" d="M93.194,75.361H73.685a.615.615,0,1,1,0-1.231H93.194a.615.615,0,0,1,0,1.231Z" transform="translate(6.495 6.943)" fill="#472e8b"/>
    <path id="Path_120" data-name="Path 120" d="M98.767,78.471H79.3a.615.615,0,0,1,0-1.231H98.767a.615.615,0,0,1,0,1.231Z" transform="translate(7.79 7.661)" fill="#472e8b"/>
    <path id="Path_121" data-name="Path 121" d="M75.458,78.471H65.685a.615.615,0,0,1,0-1.231h9.773a.615.615,0,0,1,0,1.231Z" transform="translate(4.649 7.661)" fill="#fff"/>
    <path id="Path_122" data-name="Path 122" d="M77.448,81.571H67.675a.615.615,0,0,1,0-1.231h9.773a.615.615,0,0,1,0,1.231Z" transform="translate(5.108 8.377)" fill="#fff"/>
    <path id="Path_123" data-name="Path 123" d="M102.7,81.571H78.265a.615.615,0,1,1,0-1.231H102.7a.615.615,0,1,1,0,1.231Z" transform="translate(7.553 8.377)" fill="#472e8b"/>
    <path id="Path_124" data-name="Path 124" d="M79.438,84.681H69.665a.615.615,0,0,1,0-1.231h9.773a.615.615,0,1,1,0,1.231Z" transform="translate(5.568 9.095)" fill="#fff"/>
    <path id="Path_125" data-name="Path 125" d="M107.768,84.681H78.745a.615.615,0,0,1,0-1.231h29.023a.615.615,0,0,1,0,1.231Z" transform="translate(7.663 9.095)" fill="#472e8b"/>
    <path id="Path_126" data-name="Path 126" d="M77.458,87.791H67.685a.615.615,0,1,1,0-1.231h9.773a.615.615,0,1,1,0,1.231Z" transform="translate(5.11 9.813)" fill="#fff"/>
    <path id="Path_127" data-name="Path 127" d="M92.988,87.791H77.245a.628.628,0,0,1-.615-.615.615.615,0,0,1,.615-.615H92.988a.615.615,0,1,1,0,1.231Z" transform="translate(7.317 9.813)" fill="#472e8b"/>
    <path id="Path_128" data-name="Path 128" d="M110.655,87.791H94.925a.615.615,0,0,1,0-1.231h15.73a.615.615,0,1,1,0,1.231Z" transform="translate(11.398 9.813)" fill="#472e8b"/>
    <path id="Path_129" data-name="Path 129" d="M77.588,90.9H67.815a.615.615,0,1,1,0-1.231h9.773a.615.615,0,0,1,.615.615.628.628,0,0,1-.615.615Z" transform="translate(5.141 10.53)" fill="#fff"/>
    <path id="Path_130" data-name="Path 130" d="M92.744,90.9H79a.615.615,0,1,1,0-1.231H92.744a.615.615,0,0,1,.615.615.628.628,0,0,1-.615.615Z" transform="translate(7.721 10.53)" fill="#472e8b"/>
    <path id="Path_131" data-name="Path 131" d="M97.67,90.9H92.045a.615.615,0,1,1,0-1.231H97.67a.615.615,0,0,1,.615.615.628.628,0,0,1-.615.615Z" transform="translate(10.733 10.53)" fill="#472e8b"/>
    <path id="Path_132" data-name="Path 132" d="M77.708,94H67.935a.615.615,0,0,1-.615-.615.628.628,0,0,1,.615-.615h9.773a.615.615,0,0,1,0,1.231Z" transform="translate(5.168 11.246)" fill="#fff"/>
    <path id="Path_133" data-name="Path 133" d="M98.06,94H77.985a.615.615,0,1,1,0-1.231H98.06a.615.615,0,0,1,0,1.231Z" transform="translate(7.488 11.246)" fill="#472e8b"/>
    <path id="Path_134" data-name="Path 134" d="M105.939,94H96.215a.615.615,0,0,1,0-1.231h9.724a.615.615,0,1,1,0,1.231Z" transform="translate(11.696 11.246)" fill="#472e8b"/>
    <path id="Path_135" data-name="Path 135" d="M71.39,97.111H66.2a.615.615,0,0,1,0-1.231H71.39a.615.615,0,0,1,0,1.231Z" transform="translate(4.767 11.964)" fill="#fff"/>
    <path id="Path_136" data-name="Path 136" d="M96.543,97.111H73.9a.615.615,0,0,1,0-1.231H96.543a.615.615,0,0,1,0,1.231Z" transform="translate(6.544 11.964)" fill="#472e8b"/>
    <path id="Path_137" data-name="Path 137" d="M76.1,100.231H66.325a.615.615,0,0,1,0-1.231H76.1a.615.615,0,0,1,0,1.231Z" transform="translate(4.797 12.684)" fill="#fff"/>
    <path id="Path_138" data-name="Path 138" d="M87.122,103.321h-19.5a.615.615,0,1,1,0-1.231h19.5a.615.615,0,1,1,0,1.231Z" transform="translate(5.097 13.397)" fill="#fff"/>
    <path id="Path_139" data-name="Path 139" d="M99.654,103.321H86.115a.615.615,0,0,1-.615-.615.628.628,0,0,1,.615-.615H99.654a.615.615,0,1,1,0,1.231Z" transform="translate(9.365 13.397)" fill="#472e8b"/>
    <path id="Path_140" data-name="Path 140" d="M115.474,103.321H98.685a.615.615,0,0,1-.615-.615.628.628,0,0,1,.615-.615h16.788a.615.615,0,0,1,0,1.231Z" transform="translate(12.266 13.397)" fill="#472e8b"/>
    <path id="Path_141" data-name="Path 141" d="M96.867,106.431H68.435a.615.615,0,1,1,0-1.231H96.867a.615.615,0,1,1,0,1.231Z" transform="translate(5.284 14.115)" fill="#fff"/>
    <path id="Path_142" data-name="Path 142" d="M105.9,106.431H93.115a.615.615,0,1,1,0-1.231H105.9a.615.615,0,1,1,0,1.231Z" transform="translate(10.98 14.115)" fill="#472e8b"/>
    <path id="Path_143" data-name="Path 143" d="M143.3,106.431H105.265a.615.615,0,1,1,0-1.231H143.3a.615.615,0,0,1,0,1.231Z" transform="translate(13.785 14.115)" fill="#472e8b"/>
    <path id="Path_144" data-name="Path 144" d="M81.916,109.541H68.475a.615.615,0,0,1,0-1.231H81.916a.615.615,0,0,1,0,1.231Z" transform="translate(5.293 14.833)" fill="#fff"/>
    <path id="Path_145" data-name="Path 145" d="M91.462,109.541H81.615a.628.628,0,0,1-.615-.615.615.615,0,0,1,.615-.615h9.847a.615.615,0,0,1,.615.615A.628.628,0,0,1,91.462,109.541Z" transform="translate(8.326 14.833)" fill="#472e8b"/>
    <path id="Path_146" data-name="Path 146" d="M101.672,109.541H91.825a.628.628,0,0,1-.615-.615.615.615,0,0,1,.615-.615h9.847a.615.615,0,0,1,.615.615.628.628,0,0,1-.615.615Z" transform="translate(10.683 14.833)" fill="#472e8b"/>
    <path id="Path_147" data-name="Path 147" d="M92.363,112.651H68.6a.628.628,0,0,1-.615-.615.615.615,0,0,1,.615-.615H92.363a.615.615,0,0,1,0,1.231Z" transform="translate(5.321 15.551)" fill="#fff"/>
    <path id="Path_148" data-name="Path 148" d="M102.173,112.651H90.3a.615.615,0,1,1,0-1.231h11.877a.615.615,0,0,1,0,1.231Z" transform="translate(10.329 15.551)" fill="#472e8b"/>
    <path id="Path_149" data-name="Path 149" d="M120.421,112.651H102.315a.628.628,0,0,1-.615-.615.615.615,0,0,1,.615-.615h18.105a.615.615,0,0,1,0,1.231Z" transform="translate(13.104 15.551)" fill="#472e8b"/>
    <path id="Path_150" data-name="Path 150" d="M136.681,112.651H118.575a.615.615,0,0,1,0-1.231h18.105a.615.615,0,0,1,.615.615.628.628,0,0,1-.615.615Z" transform="translate(16.857 15.551)" fill="#472e8b"/>
    <path id="Path_151" data-name="Path 151" d="M87.772,115.751H73.605a.615.615,0,0,1-.615-.615.628.628,0,0,1,.615-.615H87.772a.615.615,0,1,1,0,1.231Z" transform="translate(6.477 16.266)" fill="#fff"/>
    <path id="Path_152" data-name="Path 152" d="M101.475,115.751H87.3a.615.615,0,1,1,0-1.231h14.179a.628.628,0,0,1,.615.615A.615.615,0,0,1,101.475,115.751Z" transform="translate(9.637 16.266)" fill="#472e8b"/>
    <path id="Path_153" data-name="Path 153" d="M115.233,115.751H101.115a.615.615,0,1,1,0-1.231h14.179a.617.617,0,1,1-.062,1.231Z" transform="translate(12.827 16.266)" fill="#472e8b"/>
    <path id="Path_154" data-name="Path 154" d="M129.525,116.1H115.345a.615.615,0,0,1,0-1.231h14.179a.615.615,0,0,1,0,1.231Z" transform="translate(16.112 16.347)" fill="#472e8b"/>
    <path id="Path_155" data-name="Path 155" d="M85.218,118.861H75.445a.615.615,0,0,1,0-1.231h9.773a.615.615,0,0,1,0,1.231Z" transform="translate(6.902 16.984)" fill="#fff"/>
    <path id="Path_156" data-name="Path 156" d="M95.028,118.861H85.255a.615.615,0,0,1,0-1.231h9.773a.615.615,0,0,1,0,1.231Z" transform="translate(9.166 16.984)" fill="#472e8b"/>
    <path id="Path_157" data-name="Path 157" d="M115.338,119.242h0l-20.222-.382a.615.615,0,0,1,0-1.231h0l20.2.382a.615.615,0,0,1,.6.628A.6.6,0,0,1,115.338,119.242Z" transform="translate(11.442 16.984)" fill="#472e8b"/>
    <path id="Path_158" data-name="Path 158" d="M118.742,84.681H105.535a.615.615,0,1,1,0-1.231h13.207a.615.615,0,1,1,0,1.231Z" transform="translate(13.847 9.095)" fill="#472e8b"/>
    <path id="Path_159" data-name="Path 159" d="M125.032,84.706a44.834,44.834,0,0,1-4.689,0,.6.6,0,0,1-.406-.775.615.615,0,0,1,.689-.418h14.942a.615.615,0,1,1,0,1.231Z" transform="translate(17.306 9.107)" fill="#472e8b"/>
    <path id="Path_160" data-name="Path 160" d="M117.9,78.471H98.715a.628.628,0,0,1-.615-.615.615.615,0,0,1,.615-.615H117.9a.615.615,0,0,1,.615.615A.628.628,0,0,1,117.9,78.471Z" transform="translate(12.273 7.661)" fill="#472e8b"/>
    <path id="Path_161" data-name="Path 161" d="M136.526,78.471h-19.09a.615.615,0,1,1,0-1.231h19.09a.615.615,0,0,1,0,1.231Z" transform="translate(16.594 7.661)" fill="#472e8b"/>
    <path id="Path_162" data-name="Path 162" d="M101.049,75.369h-6.72a.615.615,0,0,1-.517-.7.628.628,0,0,1,.665-.517h22.056a.615.615,0,1,1,0,1.231Z" transform="translate(11.281 6.948)" fill="#472e8b"/>
    <path id="Path_163" data-name="Path 163" d="M116.635,75.372a.628.628,0,0,1-.554-.357.6.6,0,0,1,.3-.812c.16-.074.394-.2,13.391-.062a.615.615,0,0,1,.615.615.64.64,0,0,1-.628.615c-4.665,0-12.308-.1-12.973,0Z" transform="translate(16.41 6.932)" fill="#fff"/>
    <path id="Path_164" data-name="Path 164" d="M104.3,97.111H94.455a.615.615,0,0,1,0-1.231H104.3a.615.615,0,0,1,0,1.231Z" transform="translate(11.29 11.964)" fill="#472e8b"/>
    <path id="Path_165" data-name="Path 165" d="M85.473,100.231H78.235a.615.615,0,1,1,0-1.231h7.237a.615.615,0,0,1,0,1.231Z" transform="translate(7.546 12.684)" fill="#472e8b"/>
    <path id="Path_166" data-name="Path 166" d="M103.667,100.231H86.435a.615.615,0,1,1,0-1.231h17.232a.615.615,0,1,1,0,1.231Z" transform="translate(9.438 12.684)" fill="#fff"/>
    <path id="Path_167" data-name="Path 167" d="M136.746,100.231H103.255a.615.615,0,0,1,0-1.231h33.491a.615.615,0,0,1,0,1.231Z" transform="translate(13.321 12.684)" fill="#472e8b"/>
    <path id="Path_168" data-name="Path 168" d="M284.844,145.2s1.637,39-2.757,51.855H262.062a4.8,4.8,0,0,0-4.591,3.409l-1.071,3.569h50.895a31.054,31.054,0,0,0,9.428-9.76c3.422-6.006,1.3-49.085,1.3-49.085Z" transform="translate(48.813 23.346)" fill="#fff"/>
    <path id="Path_169" data-name="Path 169" d="M307.409,204.777H256.515a.591.591,0,0,1-.492-.246.652.652,0,0,1-.1-.542l1.083-3.582a5.391,5.391,0,0,1,5.182-3.852h19.57c4.136-13,2.6-50.821,2.585-51.2a.615.615,0,0,1,.16-.455.64.64,0,0,1,.455-.2h33.232a.628.628,0,0,1,.615.591c.086,1.76,2.08,43.325-1.379,49.418a31.509,31.509,0,0,1-9.65,9.982.727.727,0,0,1-.369.086Zm-50.07-1.231h49.885a30.536,30.536,0,0,0,9.083-9.44c2.6-4.579,1.957-33.158,1.231-48.175H285.562c.2,5.293,1.3,39.386-2.806,51.436a.615.615,0,0,1-.591.418H262.177a4.148,4.148,0,0,0-4,2.979Z" transform="translate(48.698 23.233)" fill="#231f20"/>
    <path id="Path_170" data-name="Path 170" d="M308.973,186.8c0,8.123-2.462,10.56-5.7,10.56H290.51a4.3,4.3,0,0,0-4.037,2.819l-1.4,3.853h19.693c5.046,0,8.616-7.643,8.788-15.767s0-43.079,0-43.079h-4.394S308.973,178.681,308.973,186.8Z" transform="translate(55.431 23.346)" fill="#231f20"/>
    <path id="Path_171" data-name="Path 171" d="M304.859,204.777H285.166a.6.6,0,0,1-.5-.258.591.591,0,0,1-.074-.566l1.4-3.852a4.923,4.923,0,0,1,4.616-3.225H303.37c1.231,0,5.083,0,5.083-9.945,0-8.037.16-41.282.16-41.614a.615.615,0,0,1,.615-.615h4.394a.628.628,0,0,1,.615.615c0,.357.16,35.042,0,43.079S310.534,204.777,304.859,204.777Zm-18.795-1.231h18.795c4.332,0,8-6.806,8.173-15.164.148-7.447,0-37.737,0-42.451h-3.163c0,4.6-.16,33.565-.16,41s-2.068,11.176-6.314,11.176H290.631a3.693,3.693,0,0,0-3.459,2.462Z" transform="translate(55.31 23.233)" fill="#231f20"/>
    <path id="Path_172" data-name="Path 172" d="M250.113,72.562l-7.693,88.053a6.979,6.979,0,0,0,6.88,7.853h105a8.616,8.616,0,0,0,8.271-7.877l7.7-88.053a6.979,6.979,0,0,0-6.893-7.877h-105a8.616,8.616,0,0,0-8.271,7.9Z" transform="translate(45.573 4.757)" fill="#231f20"/>
    <path id="Path_173" data-name="Path 173" d="M354.416,169.226h-105a7.385,7.385,0,0,1-5.5-2.462,7.939,7.939,0,0,1-1.994-6.154l7.7-88.029A9.231,9.231,0,0,1,258.5,64.15h105a7.385,7.385,0,0,1,5.5,2.388A7.89,7.89,0,0,1,371,72.692L363.3,160.745a9.268,9.268,0,0,1-8.887,8.48ZM258.5,65.418a7.988,7.988,0,0,0-7.656,7.311h0l-7.7,88.053A6.77,6.77,0,0,0,244.823,166a6.154,6.154,0,0,0,4.591,1.994h105a8,8,0,0,0,7.656-7.385l7.7-88.029a6.757,6.757,0,0,0-1.674-5.219,6.154,6.154,0,0,0-4.6-1.982ZM250.239,72.68Z" transform="translate(45.46 4.64)" fill="#231f20"/>
    <path id="Path_174" data-name="Path 174" d="M249.775,72.2l-7.385,84.065a6.671,6.671,0,0,0,6.585,7.52H349.25a8.222,8.222,0,0,0,7.89-7.52L364.525,72.2a6.646,6.646,0,0,0-6.573-7.52H257.665a8.222,8.222,0,0,0-7.89,7.52Z" transform="translate(45.566 4.762)" fill="#fff"/>
    <path id="Path_175" data-name="Path 175" d="M349.357,164.517H249.106a7.053,7.053,0,0,1-5.268-2.289,7.582,7.582,0,0,1-1.92-5.9L249.3,72.254h0a8.85,8.85,0,0,1,8.505-8.074H358.071a7.053,7.053,0,0,1,5.231,2.24,7.57,7.57,0,0,1,1.92,5.9l-7.385,84.078a8.85,8.85,0,0,1-8.48,8.123ZM250.5,72.365l-7.385,84.078a6.462,6.462,0,0,0,1.6,4.923,5.846,5.846,0,0,0,4.369,1.883H349.357a7.607,7.607,0,0,0,7.287-6.954l7.385-84.078a6.376,6.376,0,0,0-1.588-4.923,5.846,5.846,0,0,0-4.369-1.883h-100.3a7.594,7.594,0,0,0-7.274,6.954Z" transform="translate(45.46 4.647)" fill="#231f20"/>
    <path id="Path_176" data-name="Path 176" d="M243.651,127.62l-1.231,14.118a6.671,6.671,0,0,0,6.585,7.52H349.244a8.222,8.222,0,0,0,7.89-7.52l1.231-14.118Z" transform="translate(45.573 19.29)" fill="#fff"/>
    <path id="Path_177" data-name="Path 177" d="M349.357,149.989H249.106a7.053,7.053,0,0,1-5.268-2.289,7.582,7.582,0,0,1-1.92-5.9l1.231-14.118a.615.615,0,0,1,.615-.566H358.49a.616.616,0,0,1,.455.209.64.64,0,0,1,.16.468l-1.231,14.118A8.85,8.85,0,0,1,349.357,149.989ZM244.33,128.351,243.1,141.89a6.462,6.462,0,0,0,1.6,4.923,5.846,5.846,0,0,0,4.369,1.883H349.357a7.607,7.607,0,0,0,7.287-6.954l1.169-13.453Z" transform="translate(45.46 19.175)" fill="#231f20"/>
    <ellipse id="Ellipse_22" data-name="Ellipse 22" cx="5.022" cy="4.554" rx="5.022" ry="4.554" transform="translate(339.046 159.359) rotate(-56.17)" fill="#fff"/>
    <path id="Path_178" data-name="Path 178" d="M289.819,142.941a4.776,4.776,0,0,1-3.569-1.551,5.145,5.145,0,0,1-1.3-4,5.957,5.957,0,0,1,5.723-5.44,4.776,4.776,0,0,1,3.569,1.551,5.194,5.194,0,0,1,1.3,4A5.97,5.97,0,0,1,289.819,142.941Zm.849-9.76a4.7,4.7,0,0,0-4.493,4.32,3.926,3.926,0,0,0,.972,3.052,3.569,3.569,0,0,0,2.671,1.157,4.714,4.714,0,0,0,4.493-4.32,3.939,3.939,0,0,0-.985-3.052,3.532,3.532,0,0,0-2.659-1.1Z" transform="translate(55.395 20.29)" fill="#231f20"/>
    <path id="Path_179" data-name="Path 179" d="M355.247,69.24H256.928a4.259,4.259,0,0,0-4.1,3.914l-5.194,59.3a3.471,3.471,0,0,0,3.422,3.926h98.318a4.271,4.271,0,0,0,4.1-3.926l5.194-59.3a3.459,3.459,0,0,0-3.422-3.914Z" transform="translate(46.783 5.815)" fill="#231f20"/>
    <path id="Path_180" data-name="Path 180" d="M270.488,75.361h-9.773a.615.615,0,1,1,0-1.231h9.773a.615.615,0,1,1,0,1.231Z" transform="translate(49.667 6.943)" fill="#fff"/>
    <path id="Path_181" data-name="Path 181" d="M290.2,75.361h-19.5a.615.615,0,0,1,0-1.231h19.5a.615.615,0,0,1,0,1.231Z" transform="translate(51.973 6.943)" fill="#472e8b"/>
    <path id="Path_182" data-name="Path 182" d="M295.112,78.471h-19.5a.615.615,0,0,1,0-1.231h19.5a.615.615,0,0,1,0,1.231Z" transform="translate(53.106 7.661)" fill="#472e8b"/>
    <path id="Path_183" data-name="Path 183" d="M271.778,78.471h-9.773a.615.615,0,1,1,0-1.231h9.773a.615.615,0,0,1,0,1.231Z" transform="translate(49.965 7.661)" fill="#fff"/>
    <path id="Path_184" data-name="Path 184" d="M273.078,81.571h-9.773a.615.615,0,1,1,0-1.231h9.773a.628.628,0,0,1,.615.615A.615.615,0,0,1,273.078,81.571Z" transform="translate(50.265 8.377)" fill="#fff"/>
    <path id="Path_185" data-name="Path 185" d="M298.3,81.571h-24.42a.615.615,0,0,1-.615-.615.628.628,0,0,1,.615-.615H298.3a.615.615,0,1,1,0,1.231Z" transform="translate(52.707 8.377)" fill="#472e8b"/>
    <path id="Path_186" data-name="Path 186" d="M274.368,84.681H264.6a.615.615,0,1,1,0-1.231h9.773a.615.615,0,1,1,0,1.231Z" transform="translate(50.562 9.095)" fill="#fff"/>
    <path id="Path_187" data-name="Path 187" d="M302.7,84.681H273.675a.615.615,0,1,1,0-1.231H302.7a.615.615,0,1,1,0,1.231Z" transform="translate(52.658 9.095)" fill="#472e8b"/>
    <path id="Path_188" data-name="Path 188" d="M271.7,87.791h-9.773a.615.615,0,1,1,0-1.231H271.7a.615.615,0,0,1,.615.615.628.628,0,0,1-.615.615Z" transform="translate(49.946 9.813)" fill="#fff"/>
    <path id="Path_189" data-name="Path 189" d="M287.228,87.791H271.485a.615.615,0,1,1,0-1.231h15.742a.615.615,0,0,1,.615.615.628.628,0,0,1-.615.615Z" transform="translate(52.153 9.813)" fill="#472e8b"/>
    <path id="Path_190" data-name="Path 190" d="M304.907,87.791H289.115a.615.615,0,1,1,0-1.231h15.742a.615.615,0,0,1,.615.615.628.628,0,0,1-.566.615Z" transform="translate(56.222 9.813)" fill="#472e8b"/>
    <path id="Path_191" data-name="Path 191" d="M271.128,90.9h-9.773a.615.615,0,1,1,0-1.231h9.773a.615.615,0,0,1,.615.615.628.628,0,0,1-.615.615Z" transform="translate(49.815 10.53)" fill="#fff"/>
    <path id="Path_192" data-name="Path 192" d="M286.284,90.9H272.535a.615.615,0,1,1,0-1.231h13.748a.615.615,0,0,1,.615.615.628.628,0,0,1-.615.615Z" transform="translate(52.395 10.53)" fill="#472e8b"/>
    <path id="Path_193" data-name="Path 193" d="M291.17,90.9h-5.625a.615.615,0,1,1,0-1.231h5.625a.615.615,0,0,1,.615.615.628.628,0,0,1-.615.615Z" transform="translate(55.398 10.53)" fill="#472e8b"/>
    <path id="Path_194" data-name="Path 194" d="M270.558,94h-9.773a.615.615,0,0,1,0-1.231h9.773a.628.628,0,0,1,.615.615A.615.615,0,0,1,270.558,94Z" transform="translate(49.683 11.246)" fill="#fff"/>
    <path id="Path_195" data-name="Path 195" d="M290.876,94h-20.05a.615.615,0,0,1-.615-.615.628.628,0,0,1,.615-.615h20.05a.628.628,0,0,1,.615.615A.615.615,0,0,1,290.876,94Z" transform="translate(52.001 11.246)" fill="#472e8b"/>
    <path id="Path_196" data-name="Path 196" d="M298.827,94h-9.711a.615.615,0,1,1,0-1.231h9.773a.628.628,0,0,1,.615.615.615.615,0,0,1-.677.615Z" transform="translate(56.222 11.246)" fill="#472e8b"/>
    <path id="Path_197" data-name="Path 197" d="M263.539,97.111h-5.194a.615.615,0,1,1,0-1.231h5.194a.615.615,0,1,1,0,1.231Z" transform="translate(49.12 11.964)" fill="#fff"/>
    <path id="Path_198" data-name="Path 198" d="M288.693,97.111H266.045a.615.615,0,1,1,0-1.231h22.647a.615.615,0,0,1,0,1.231Z" transform="translate(50.897 11.964)" fill="#472e8b"/>
    <path id="Path_199" data-name="Path 199" d="M267.56,100.231h-9.785a.628.628,0,0,1-.615-.615.616.616,0,0,1,.615-.615h9.785a.615.615,0,0,1,.615.615.628.628,0,0,1-.615.615Z" transform="translate(48.988 12.684)" fill="#fff"/>
    <path id="Path_200" data-name="Path 200" d="M277.882,103.321h-19.5a.615.615,0,1,1,0-1.231h19.5a.615.615,0,0,1,0,1.231Z" transform="translate(49.129 13.397)" fill="#fff"/>
    <path id="Path_201" data-name="Path 201" d="M290.414,103.321H276.875a.615.615,0,0,1-.615-.615.628.628,0,0,1,.615-.615h13.539a.615.615,0,1,1,0,1.231Z" transform="translate(53.397 13.397)" fill="#472e8b"/>
    <path id="Path_202" data-name="Path 202" d="M306.268,103.321H289.455a.615.615,0,1,1,0-1.231h16.813a.615.615,0,1,1,0,1.231Z" transform="translate(56.301 13.397)" fill="#472e8b"/>
    <path id="Path_203" data-name="Path 203" d="M286.937,106.431H258.505a.615.615,0,1,1,0-1.231h28.432a.615.615,0,1,1,0,1.231Z" transform="translate(49.157 14.115)" fill="#fff"/>
    <path id="Path_204" data-name="Path 204" d="M295.964,106.431H283.175a.615.615,0,1,1,0-1.231h12.788a.615.615,0,1,1,0,1.231Z" transform="translate(54.851 14.115)" fill="#472e8b"/>
    <path id="Path_205" data-name="Path 205" d="M333.356,106.431h-38.02a.615.615,0,1,1,0-1.231h38.02a.615.615,0,1,1,0,1.231Z" transform="translate(57.658 14.115)" fill="#472e8b"/>
    <path id="Path_206" data-name="Path 206" d="M271.286,109.541H257.845a.615.615,0,1,1,0-1.231h13.441a.615.615,0,1,1,0,1.231Z" transform="translate(49.004 14.833)" fill="#fff"/>
    <path id="Path_207" data-name="Path 207" d="M280.844,109.541h-9.908a.628.628,0,0,1-.615-.615.615.615,0,0,1,.615-.615h9.908a.615.615,0,0,1,.615.615.628.628,0,0,1-.615.615Z" transform="translate(52.026 14.833)" fill="#472e8b"/>
    <path id="Path_208" data-name="Path 208" d="M291.06,109.541h-9.945a.628.628,0,0,1-.615-.615.615.615,0,0,1,.615-.615h9.908a.615.615,0,0,1,.615.615A.628.628,0,0,1,291.06,109.541Z" transform="translate(54.376 14.833)" fill="#472e8b"/>
    <path id="Path_209" data-name="Path 209" d="M281.043,112.651H257.275a.615.615,0,0,1,0-1.231h23.767a.615.615,0,0,1,0,1.231Z" transform="translate(48.873 15.551)" fill="#fff"/>
    <path id="Path_210" data-name="Path 210" d="M290.855,112.651h-11.89a.628.628,0,0,1-.615-.615.615.615,0,0,1,.615-.615h11.89a.615.615,0,1,1,0,1.231Z" transform="translate(53.879 15.551)" fill="#472e8b"/>
    <path id="Path_211" data-name="Path 211" d="M309.1,112.651H291a.615.615,0,0,1,0-1.231H309.1a.615.615,0,0,1,0,1.231Z" transform="translate(56.656 15.551)" fill="#472e8b"/>
    <path id="Path_212" data-name="Path 212" d="M325.349,112.651H307.255a.615.615,0,0,1,0-1.231h18.093a.615.615,0,0,1,0,1.231Z" transform="translate(60.41 15.551)" fill="#472e8b"/>
    <path id="Path_213" data-name="Path 213" d="M275.777,115.751H261.585a.615.615,0,0,1-.615-.615.628.628,0,0,1,.615-.615h14.191a.615.615,0,1,1,0,1.231Z" transform="translate(49.868 16.266)" fill="#fff"/>
    <path id="Path_214" data-name="Path 214" d="M289.454,115.751H275.275a.615.615,0,1,1,0-1.231h14.179a.628.628,0,0,1,.615.615A.615.615,0,0,1,289.454,115.751Z" transform="translate(53.028 16.266)" fill="#472e8b"/>
    <path id="Path_215" data-name="Path 215" d="M303.225,115.751H289.045a.615.615,0,0,1-.615-.615.628.628,0,0,1,.615-.615h14.179a.615.615,0,0,1,0,1.231Z" transform="translate(56.206 16.266)" fill="#472e8b"/>
    <path id="Path_216" data-name="Path 216" d="M317.424,116.1H303.245a.615.615,0,1,1,0-1.231h14.179a.615.615,0,1,1,0,1.231Z" transform="translate(59.484 16.347)" fill="#472e8b"/>
    <path id="Path_217" data-name="Path 217" d="M272.508,118.861h-9.773a.615.615,0,1,1,0-1.231h9.773a.615.615,0,0,1,0,1.231Z" transform="translate(50.133 16.984)" fill="#fff"/>
    <path id="Path_218" data-name="Path 218" d="M282.32,118.861h-9.785a.615.615,0,0,1,0-1.231h9.785a.615.615,0,0,1,0,1.231Z" transform="translate(52.395 16.984)" fill="#472e8b"/>
    <path id="Path_219" data-name="Path 219" d="M302.535,119.243h0l-20.112-.382a.615.615,0,0,1-.6-.628.578.578,0,0,1,.628-.6l20.112.382a.64.64,0,0,1,.6.628A.615.615,0,0,1,302.535,119.243Z" transform="translate(54.68 16.984)" fill="#472e8b"/>
    <path id="Path_220" data-name="Path 220" d="M313.672,84.681H300.465a.615.615,0,0,1,0-1.231h13.207a.615.615,0,1,1,0,1.231Z" transform="translate(58.842 9.095)" fill="#472e8b"/>
    <path id="Path_221" data-name="Path 221" d="M319.977,84.728a35.314,35.314,0,0,1-4.726-.074.633.633,0,1,1,.3-1.231h14.942a.615.615,0,1,1,0,1.231Z" transform="translate(62.285 9.084)" fill="#472e8b"/>
    <path id="Path_222" data-name="Path 222" d="M314.224,78.471H295.035a.628.628,0,0,1-.616-.615.615.615,0,0,1,.616-.615h19.189a.615.615,0,0,1,.615.615.628.628,0,0,1-.615.615Z" transform="translate(57.589 7.661)" fill="#472e8b"/>
    <path id="Path_223" data-name="Path 223" d="M332.845,78.471h-19.09a.615.615,0,0,1,0-1.231h19.09a.615.615,0,1,1,0,1.231Z" transform="translate(61.91 7.661)" fill="#472e8b"/>
    <path id="Path_224" data-name="Path 224" d="M298.12,75.369h-6.782a.615.615,0,0,1-.517-.7.628.628,0,0,1,.665-.517h22.069a.615.615,0,0,1,.615.615.628.628,0,0,1-.615.615Z" transform="translate(56.757 6.948)" fill="#472e8b"/>
    <path id="Path_225" data-name="Path 225" d="M313.656,75.367A.6.6,0,0,1,313.09,75a.615.615,0,0,1,.32-.812c.148,0,.418-.185,13.379,0a.615.615,0,0,1,0,1.231h0c-4.677,0-12.308-.1-12.985,0Z" transform="translate(61.886 6.937)" fill="#fff"/>
    <path id="Path_226" data-name="Path 226" d="M296.452,97.111h-9.847a.615.615,0,0,1,0-1.231h9.847a.615.615,0,0,1,0,1.231Z" transform="translate(55.643 11.964)" fill="#472e8b"/>
    <path id="Path_227" data-name="Path 227" d="M276.97,100.231H269.7a.615.615,0,1,1,0-1.231h7.274a.615.615,0,0,1,.615.615.628.628,0,0,1-.615.615Z" transform="translate(51.74 12.684)" fill="#472e8b"/>
    <path id="Path_228" data-name="Path 228" d="M295.127,100.231H277.9a.628.628,0,0,1-.615-.615A.615.615,0,0,1,277.9,99h17.232a.615.615,0,0,1,.615.615.628.628,0,0,1-.615.615Z" transform="translate(53.632 12.684)" fill="#fff"/>
    <path id="Path_229" data-name="Path 229" d="M328.208,100.231h-33.5a.628.628,0,0,1-.615-.615.615.615,0,0,1,.615-.615h33.5a.615.615,0,1,1,0,1.231Z" transform="translate(57.513 12.684)" fill="#472e8b"/>
    <rect id="Rectangle_76" data-name="Rectangle 76" width="115.255" height="8.714" transform="translate(122.054 218.101)" fill="#fff"/>
    <path id="Path_230" data-name="Path 230" d="M222.96,194.917H107.705a.628.628,0,0,1-.615-.615v-8.727a.628.628,0,0,1,.615-.615H222.96a.615.615,0,0,1,.615.615V194.3A.615.615,0,0,1,222.96,194.917Zm-114.639-1.231H222.345V186.24H108.321Z" transform="translate(14.348 32.526)" fill="#231f20"/>
    <rect id="Rectangle_77" data-name="Rectangle 77" width="25.798" height="61.295" transform="translate(61.288 242.878)" fill="#fff"/>
    <path id="Path_231" data-name="Path 231" d="M84.133,267.616H58.285A.615.615,0,0,1,57.67,267v-61.3a.615.615,0,0,1,.615-.615H84.133a.615.615,0,0,1,.615.615V267A.615.615,0,0,1,84.133,267.616Zm-25.17-1.231H83.579V206.321H58.962Z" transform="translate(2.941 37.172)" fill="#231f20"/>
    <rect id="Rectangle_78" data-name="Rectangle 78" width="25.798" height="61.295" transform="translate(382.509 242.878)" fill="#fff"/>
    <path id="Path_232" data-name="Path 232" d="M345.1,267.616H319.315A.615.615,0,0,1,318.7,267v-61.3a.615.615,0,0,1,.615-.615H345.1a.615.615,0,0,1,.615.615V267A.615.615,0,0,1,345.1,267.616Zm-25.17-1.231h24.555V206.321H319.931Z" transform="translate(63.193 37.172)" fill="#231f20"/>
    <rect id="Rectangle_79" data-name="Rectangle 79" width="25.798" height="15.865" transform="translate(61.288 242.878)" fill="#231f20"/>
    <path id="Path_233" data-name="Path 233" d="M84.133,222.211H58.285a.615.615,0,0,1-.615-.615v-15.89a.615.615,0,0,1,.615-.615H84.133a.615.615,0,0,1,.615.615v15.865a.615.615,0,0,1-.615.64Zm-25.17-1.231H83.579V206.321H58.962Z" transform="translate(2.941 37.172)" fill="#231f20"/>
    <rect id="Rectangle_80" data-name="Rectangle 80" width="25.798" height="15.865" transform="translate(382.509 242.878)" fill="#231f20"/>
    <path id="Path_234" data-name="Path 234" d="M345.1,222.211H319.315a.615.615,0,0,1-.615-.615v-15.89a.615.615,0,0,1,.615-.615H345.1a.615.615,0,0,1,.615.615v15.865a.615.615,0,0,1-.615.64Zm-25.17-1.231h24.555V206.321H319.931Z" transform="translate(63.193 37.172)" fill="#231f20"/>
    <rect id="Rectangle_81" data-name="Rectangle 81" width="378.479" height="15.311" transform="translate(45.545 227.566)" fill="#fff"/>
    <path id="Path_235" data-name="Path 235" d="M424.024,209.192H45.545a.628.628,0,0,1-.615-.615V193.265a.615.615,0,0,1,.615-.615H424.024a.615.615,0,0,1,.615.615v15.311A.615.615,0,0,1,424.024,209.192ZM46.161,207.961H423.409V193.881H46.161Z" transform="translate(0 34.301)" fill="#231f20"/>
    <path id="Path_236" data-name="Path 236" d="M270.7,196.09h34.709c.628,0-4-14.93-15.151-15.348S270.7,196.09,270.7,196.09Z" transform="translate(52.114 31.55)" fill="#231f20"/>
    <path id="Path_237" data-name="Path 237" d="M305.525,196.821H270.816a.6.6,0,0,1-.542-.9c.357-.665,8.739-16.075,20.124-15.681,10.93.406,15.828,14.068,15.791,15.841a.677.677,0,0,1-.665.738Zm-33.638-1.231H304.91c-.578-2.732-5.379-13.773-14.548-14.118h-.418C281.032,181.46,273.832,192.34,271.887,195.59Z" transform="translate(51.998 31.435)" fill="#231f20"/>
    <path id="Path_238" data-name="Path 238" d="M175.8,214.478s-55.523,13.318-57.209,23.14,2.671,29.023,2.671,29.023H264.286s6.794-40.445,0-55.806S175.8,214.478,175.8,214.478Z" transform="translate(16.914 37.114)" fill="#231f20"/>
    <path id="Path_239" data-name="Path 239" d="M264.441,267.369H121.419a.615.615,0,0,1-.6-.48c-.172-.788-4.357-19.435-2.671-29.269,1.735-10.093,55.387-23.078,57.677-23.62h0c.209,0,20.69-4.788,41.75-7.594,28.531-3.791,44.494-2.351,47.424,4.308,6.794,15.348.332,54.5,0,56.15A.615.615,0,0,1,264.441,267.369Zm-142.53-1.231h142c.751-4.739,6.154-40.851,0-54.944-2.7-6.043-18.647-7.274-46.156-3.582-20.924,2.794-41.331,7.508-41.639,7.582-15.336,3.692-55.387,14.918-56.741,22.635C117.862,246.556,121.259,263.111,121.911,266.138Z" transform="translate(16.808 37.001)" fill="#231f20"/>
    <path id="Path_240" data-name="Path 240" d="M246.989,159.59,257.266,183.2s28.986,5.293,31.041,4.172,5.133-5.046,7.077-6.3,9.92-.148,11.3.837,4.566,4.923,4.222,6.154-2.289-.135-2.289-.135,2.9,1.957,2.314,3.508-6.757-2.523-7.9-2.523-4.222,8.542-7.643,11.5-41.54,8.517-45.085,7.68S227,178.791,227,178.791l3.988-17.945Z" transform="translate(42.027 26.67)" fill="#fff"/>
    <path id="Path_241" data-name="Path 241" d="M251.6,208.907a6.673,6.673,0,0,1-1.329-.1c-3.692-.874-21.613-26.623-23.644-29.54a.64.64,0,0,1-.1-.492l3.988-17.945a.628.628,0,0,1,.554-.48l16-1.231a.628.628,0,0,1,.615.369L257.832,182.8c13.711,2.462,28.912,4.788,30.315,4.173a21.045,21.045,0,0,0,3.693-3.286,23.226,23.226,0,0,1,3.311-2.991c2.215-1.452,10.511-.209,11.988.849,1.231.886,4.923,5.083,4.456,6.831a1.231,1.231,0,0,1-.689.862,2.659,2.659,0,0,1,.7,2.572,1.145,1.145,0,0,1-.652.64c-1.022.394-2.819-.431-5.44-1.723a16.575,16.575,0,0,0-2.314-1.034,20.924,20.924,0,0,0-2.019,3.409c-1.465,2.757-3.286,6.154-5.3,7.927-2.277,1.957-16.7,4.431-22.795,5.4C264.848,207.7,255.346,208.907,251.6,208.907Zm-23.816-30.131c7.607,10.942,20.37,28.309,22.77,28.826,3.692.874,41.491-4.923,44.531-7.545,1.834-1.575,3.594-4.923,5.009-7.57,1.612-3.028,2.215-4.074,3.04-4.074a9.047,9.047,0,0,1,2.929,1.231c1.231.628,3.914,1.932,4.456,1.686.222-.652-1.034-1.932-2.031-2.646l-.148-.172a.615.615,0,0,1,.7-1.009l.111.086a2.142,2.142,0,0,0,1.231.468c.222-.812-2.462-4.468-3.963-5.563-1.145-.825-8.874-1.957-10.61-.825a24.4,24.4,0,0,0-3.1,2.819A21.573,21.573,0,0,1,288.7,188c-2.142,1.231-26.574-3.212-31.448-4.111a.615.615,0,0,1-.455-.357l-10.093-23.2-15.09,1.231Z" transform="translate(41.916 26.561)" fill="#231f20"/>
    <path id="Path_242" data-name="Path 242" d="M157.217,162.891l-7.385,18.081s-22.069-12.567-27.952-13.453c-16.69-2.536-22.856,8.123-23.14,9.945s16.124-.135,16.124-.135-6.917,2.462-6.3,5.465c.332,1.686,8.123-2.375,9.391-1.957s34.66,26.278,46.439,28.74,38.808-56.4,38.808-56.4" transform="translate(12.42 25.19)" fill="#fff"/>
    <path id="Path_243" data-name="Path 243" d="M165.216,210.373a3.791,3.791,0,0,1-.837-.086c-9.28-1.982-31.14-17.761-41.639-25.355-2.462-1.76-4.566-3.286-4.923-3.446a15.827,15.827,0,0,0-3.459,1.046c-3,1.083-4.923,1.7-5.8,1.231a1.034,1.034,0,0,1-.517-.714c-.382-1.9,1.428-3.483,3.274-4.579-5.046.5-11.767.935-12.838-.185a.874.874,0,0,1-.258-.775c.258-1.723,6.425-13.108,23.829-10.474,5.453.825,23.89,11.077,27.571,13.194l7.1-17.441a.616.616,0,1,1,1.145.455l-7.385,18.093a.64.64,0,0,1-.369.345.6.6,0,0,1-.5,0c-.222-.135-22.044-12.53-27.755-13.391-16.468-2.462-21.7,7.73-22.352,9.256,1.4.554,8.874.111,15.361-.665a.615.615,0,0,1,.677.48.6.6,0,0,1-.394.714c-1.637.578-6.154,2.659-5.933,4.677.665.172,3.286-.775,4.714-1.231,2.351-.837,3.606-1.231,4.3-1.046a52.686,52.686,0,0,1,5.194,3.606c9.613,6.954,32.149,23.213,41.171,25.158,9.28,1.969,30.672-39.793,38.156-56.052a.6.6,0,0,1,.812-.308.628.628,0,0,1,.308.812C202.793,155.921,177.66,210.373,165.216,210.373Z" transform="translate(12.299 25.108)" fill="#231f20"/>
    <path id="Path_244" data-name="Path 244" d="M215.542,107.863a10.413,10.413,0,0,0,3.569-2.289,16.653,16.653,0,0,0,3.385-5.1,55.19,55.19,0,0,0,4.185-30.955c-.652-4.529-1.575-10.831-4.283-14.635a10.228,10.228,0,0,0-5.12-3.569c-.554-.16-6.339.185-5.8.825A21.946,21.946,0,0,0,194,44.624c-5.563.222-12.308,2.646-15.915,7.077-1.477,1.822-2.019,3.249-4.394,4.1a13.268,13.268,0,0,1-9.576-.443c-.738-.308-5.539-1.994-5.514-2.659a16.592,16.592,0,0,0,9.367,15.447,23.127,23.127,0,0,1-10.08-1.588A17.712,17.712,0,0,0,176.2,77.093c2.462,3.5,5.711,6.462,8.136,10.154,2.572,3.914,5.046,7.988,8.456,11.25C198.175,103.593,207.862,110.781,215.542,107.863Z" transform="translate(26.074 0.128)" fill="#fff"/>
    <path id="Path_245" data-name="Path 245" d="M211.855,109.3c-7.68,0-15.841-6.893-19.361-10.265a53.393,53.393,0,0,1-7.619-9.933l-.886-1.415a52.348,52.348,0,0,0-4.431-5.539,46.965,46.965,0,0,1-3.52-4.3,18.29,18.29,0,0,1-18.61-10.917.615.615,0,0,1,.8-.8,22.709,22.709,0,0,0,7.557,1.575A17.232,17.232,0,0,1,158.142,52.8a.6.6,0,0,1,.64-.591.615.615,0,0,1,.591.394,20.924,20.924,0,0,0,4.419,1.969l.739.3a12.665,12.665,0,0,0,9.133.431,6.228,6.228,0,0,0,3.163-2.7c.271-.382.566-.775.911-1.231,3.852-4.751,10.991-7.09,16.358-7.311a22.906,22.906,0,0,1,17.564,7.311,20.358,20.358,0,0,1,5.908-.542,10.819,10.819,0,0,1,5.453,3.8c2.806,3.939,3.692,10.277,4.394,14.905a56.125,56.125,0,0,1-4.246,31.3,17.453,17.453,0,0,1-3.483,5.329,11.262,11.262,0,0,1-3.791,2.462h0A11.262,11.262,0,0,1,211.855,109.3ZM176.321,76.569a.628.628,0,0,1,.5.258c1.108,1.563,2.462,3.052,3.692,4.5a54.156,54.156,0,0,1,4.456,5.736l.935,1.428a53.752,53.752,0,0,0,7.385,9.711c3.976,3.8,14.093,12.308,22.155,9.28h0a9.957,9.957,0,0,0,3.372-2.154,16.124,16.124,0,0,0,3.237-4.923,54.759,54.759,0,0,0,4.148-30.6c-.652-4.5-1.539-10.671-4.185-14.376a9.551,9.551,0,0,0-4.8-3.4,22.241,22.241,0,0,0-5.046.455.529.529,0,0,1-.185.246.591.591,0,0,1-.862-.074h0a21.306,21.306,0,0,0-16.973-7.3c-5.083.209-11.841,2.462-15.459,6.856-.32.394-.6.775-.862,1.132a7.385,7.385,0,0,1-3.8,3.151A13.982,13.982,0,0,1,164,56.051a4.511,4.511,0,0,1-.7-.271,37.5,37.5,0,0,1-3.926-1.674,16,16,0,0,0,9.01,13.613.625.625,0,1,1-.222,1.231,23.669,23.669,0,0,1-8.936-1.12,17.035,17.035,0,0,0,17.047,8.8ZM159.373,52.851Z" transform="translate(25.957)" fill="#231f20"/>
    <path id="Path_246" data-name="Path 246" d="M173.227,81.44s-6.4,12.444-4.554,14.671,6.954,0,6.954,0" transform="translate(28.486 8.631)" fill="#fff"/>
    <path id="Path_247" data-name="Path 247" d="M171.476,97.852a3.951,3.951,0,0,1-3.163-1.231c-2.006-2.462,3.372-13.207,4.48-15.348a.617.617,0,1,1,1.1.566c-3.065,5.945-5.625,12.8-4.628,13.945,1.231,1.551,4.923.443,6.228-.111a.617.617,0,0,1,.492,1.132A13.133,13.133,0,0,1,171.476,97.852Z" transform="translate(28.378 8.515)" fill="#231f20"/>
    <path id="Path_248" data-name="Path 248" d="M172.777,69.925c-4.443,4.517-2.1,12.788-1.465,18.265q1.342,11.545,3.237,23.016c.788,4.923,13.453,3.582,15.521,1.883l.135,19.509,26.967-4.566-4.345-24.37s-8.616,1-14.635-8.407-7.68-31.115-7.68-31.115S177.122,65.519,172.777,69.925Z" transform="translate(28.898 4.637)" fill="#fff"/>
    <path id="Path_249" data-name="Path 249" d="M190.321,133.323a.677.677,0,0,1-.406-.148.615.615,0,0,1-.209-.468l-.123-18.462c-2.732,1.1-8.923,1.674-12.505.32a4.136,4.136,0,0,1-3.028-3.126c-1.231-7.619-2.339-15.373-3.237-23.053-.111-.911-.258-1.908-.418-2.954-.825-5.268-1.846-11.828,2.068-15.8C176.9,65.111,190,63.72,190.567,63.671a.591.591,0,0,1,.455.135.628.628,0,0,1,.209.431c0,.209,1.723,21.65,7.594,30.771,5.736,8.948,13.711,8.173,14.044,8.136a.628.628,0,0,1,.677.5L217.9,128.08a.64.64,0,0,1-.111.468.566.566,0,0,1-.394.246l-26.98,4.566Zm-.135-20.739a.64.64,0,0,1,.259,0,.6.6,0,0,1,.357.554l.123,18.795,25.65-4.345-4.148-23.164c-2.068,0-9.305-.406-14.635-8.727-5.526-8.616-7.385-27.078-7.73-30.771-2.659.332-13.121,1.859-16.727,5.526s-2.462,9.76-1.735,14.77c.172,1.071.332,2.08.443,3.016.886,7.656,1.982,15.385,3.225,22.992.148.935.911,1.662,2.24,2.166,3.84,1.44,10.93.443,12.308-.665a.591.591,0,0,1,.369-.148Z" transform="translate(28.784 4.528)" fill="#231f20"/>
    <path id="Path_250" data-name="Path 250" d="M173.36,98.358s6.363,3.028,8.874-3.508" transform="translate(29.645 11.726)" fill="#fff"/>
    <path id="Path_251" data-name="Path 251" d="M176.738,99.789a8.9,8.9,0,0,1-3.545-.763.615.615,0,1,1,.529-1.108,7.077,7.077,0,0,0,5,.271,5.576,5.576,0,0,0,3.04-3.446.628.628,0,0,1,.8-.345.615.615,0,0,1,.332.751,6.843,6.843,0,0,1-3.692,4.16A6.733,6.733,0,0,1,176.738,99.789Z" transform="translate(29.516 11.612)" fill="#231f20"/>
    <path id="Path_252" data-name="Path 252" d="M184.76,86.211a10.425,10.425,0,0,1,1.526-5.514,14.882,14.882,0,0,1,2.462-3.8,5.059,5.059,0,0,1,4.012-1.723,4.726,4.726,0,0,1,3.286,2.056,9.072,9.072,0,0,1,1.379,3.692,16.653,16.653,0,0,1-6.031,15.5l.382-.5" transform="translate(32.276 7.183)" fill="#fff"/>
    <path id="Path_253" data-name="Path 253" d="M191.5,97.214a.6.6,0,0,1-.492-.972l.382-.517a.6.6,0,0,1,.492-.246h0a16.1,16.1,0,0,0,5.034-14.265,8.161,8.161,0,0,0-1.231-3.471,4.136,4.136,0,0,0-2.843-1.8,4.443,4.443,0,0,0-3.508,1.526,14.229,14.229,0,0,0-2.3,3.692,10.191,10.191,0,0,0-1.526,5.194.6.6,0,0,1-.554.665.628.628,0,0,1-.665-.554,11.077,11.077,0,0,1,1.637-5.859,15.422,15.422,0,0,1,2.462-3.951,5.625,5.625,0,0,1,4.517-1.908,5.268,5.268,0,0,1,3.692,2.314,9.49,9.49,0,0,1,1.489,3.976,17.355,17.355,0,0,1-6.253,16.087.615.615,0,0,1-.332.086Z" transform="translate(32.168 7.085)" fill="#231f20"/>
    <ellipse id="Ellipse_23" data-name="Ellipse 23" cx="1.083" cy="2.769" rx="1.083" ry="2.769" transform="translate(202.094 81.12) rotate(-3.13)" fill="#231f20"/>
    <path id="Path_254" data-name="Path 254" d="M186.33,104.644a32.211,32.211,0,0,0,12.6-3.914s-2.536,11.976-12.148,13.539Z" transform="translate(32.639 13.083)" fill="#231f20"/>
    <path id="Path_255" data-name="Path 255" d="M186.9,114.965a.566.566,0,0,1-.394-.135.578.578,0,0,1-.222-.443l-.455-9.6a.615.615,0,0,1,.566-.64,32.137,32.137,0,0,0,12.308-3.828.615.615,0,0,1,.665,0,.6.6,0,0,1,.246.628c-.1.517-2.732,12.407-12.665,13.994Zm.185-9.65.394,8.308c6.7-1.489,9.625-8.517,10.585-11.521a33.54,33.54,0,0,1-10.979,3.212Z" transform="translate(32.523 12.966)" fill="#231f20"/>
    <path id="Path_256" data-name="Path 256" d="M258.264,237.166s-1.329-90.1-14.844-110.774-48.507-25.441-65.3-13.133-13.059,123.907-13.059,123.907Z" transform="translate(27.649 14.426)" fill="#472e8b"/>
    <path id="Path_257" data-name="Path 257" d="M195.453,107.7s-20.026,1.674-31.6,11.262S140.25,177.6,140.25,177.6l36.925,8.32Z" transform="translate(22.002 14.692)" fill="#472e8b"/>
    <path id="Path_258" data-name="Path 258" d="M165.953,201.068h0a.64.64,0,0,1-.6-.628c.431-26.463,1.231-70.969,1.551-71.733a.628.628,0,0,1,.825-.308.615.615,0,0,1,.332.726c-.271,1.871-1.083,47.424-1.477,71.388A.615.615,0,0,1,165.953,201.068Z" transform="translate(27.796 19.458)" fill="#231f20"/>
    <path id="Path_259" data-name="Path 259" d="M217.35,112.26s16.85,1.908,25.761,20.407c4.837,10.044,17.232,42.451,17.232,42.451L223.159,179.4Z" transform="translate(39.799 15.745)" fill="#472e8b"/>
    <path id="Path_260" data-name="Path 260" d="M257.672,206.672H199.1a13,13,0,0,1-12.887-14.684l6.425-49.295a12.985,12.985,0,0,1,12.887-11.324H264.1a13,13,0,0,1,12.887,14.671l-6.425,49.307A13.01,13.01,0,0,1,257.672,206.672Z" transform="translate(32.586 20.156)" fill="#231f20"/>
    <path id="Path_261" data-name="Path 261" d="M257.8,207.4H199.221a13.613,13.613,0,0,1-13.539-15.373l6.425-49.307a13.65,13.65,0,0,1,13.539-11.853H264.22a13.613,13.613,0,0,1,13.539,15.373l-6.437,49.307A13.638,13.638,0,0,1,257.8,207.4Zm-52.15-75.3a12.418,12.418,0,0,0-12.308,10.78l-6.425,49.309a12.407,12.407,0,0,0,12.308,13.982H257.8a12.418,12.418,0,0,0,12.308-10.78l6.425-49.309A12.308,12.308,0,0,0,264.22,132.1Z" transform="translate(32.463 20.04)" fill="#231f20"/>
    <path id="Path_262" data-name="Path 262" d="M214.923,167.373s7,8.21,7.286,11.3-13.859,73.751-13.859,73.751l20.026-5.613s13.847-65.9,12.53-70.945-9.576-11.5-9.576-11.5Z" transform="translate(37.722 27.773)" fill="#231f20"/>
    <path id="Path_263" data-name="Path 263" d="M208.465,253.154a.677.677,0,0,1-.418-.16.665.665,0,0,1-.185-.578c5.686-28.371,14.056-71.388,13.847-73.579s-5.231-8.7-7.139-10.954a.615.615,0,0,1,.357-1l16.407-3a.6.6,0,0,1,.48.111c.345.271,8.456,6.646,9.847,11.828s-11.964,68.545-12.53,71.24a.6.6,0,0,1-.431.468l-20.026,5.6A.419.419,0,0,1,208.465,253.154Zm7.717-85.247c1.859,2.24,6.511,8.123,6.757,10.819.271,2.979-11.89,64-13.674,72.951l18.709-5.182c3.889-18.561,13.539-66.3,12.456-70.3-1.132-4.345-7.865-9.957-9.157-11Z" transform="translate(37.607 27.658)" fill="#231f20"/>
    <rect id="Rectangle_82" data-name="Rectangle 82" width="118.602" height="31.546" rx="6.76" transform="translate(176.813 272.208)" fill="#231f20"/>
    <path id="Path_264" data-name="Path 264" d="M262.465,261.7H160.516a8.948,8.948,0,0,1-8.936-8.936V237.856a8.936,8.936,0,0,1,8.936-8.936H262.465a8.936,8.936,0,0,1,8.936,8.936v14.905a8.948,8.948,0,0,1-8.936,8.936ZM160.516,230.151a7.7,7.7,0,0,0-7.7,7.7v14.905a7.7,7.7,0,0,0,7.7,7.7H262.465a7.7,7.7,0,0,0,7.7-7.7V237.856a7.7,7.7,0,0,0-7.7-7.7Z" transform="translate(24.618 42.673)" fill="#231f20"/>
    <path id="Path_265" data-name="Path 265" d="M152.115,268.638a.615.615,0,0,1-.615-.615V252.342a9.5,9.5,0,0,1,9.317-9.465l61.96-1,10.979-56.556c0-.135,2.646-12.825-4.431-16.3a.6.6,0,0,1-.283-.812.615.615,0,0,1,.825-.283c7.927,3.889,5.206,17.084,5.083,17.638l-11.077,57.024a.6.6,0,0,1-.591.492L160.83,244.1a8.283,8.283,0,0,0-8.111,8.247v15.681a.615.615,0,0,1-.6.615Z" transform="translate(24.599 28.581)" fill="#fff"/>
    <path id="Path_266" data-name="Path 266" d="M245.84,234.016h0l-20.666-.148a.578.578,0,0,1-.468-.234.615.615,0,0,1-.135-.5l4.16-20.469a.64.64,0,0,1,.726-.48.628.628,0,0,1,.48.726L225.926,232.6l19.927.135a.615.615,0,1,1,0,1.231Z" transform="translate(41.464 38.807)" fill="#fff"/>
    <path id="Path_267" data-name="Path 267" d="M235.887,177.972h0a.6.6,0,0,1-.566-.652,10.376,10.376,0,0,0-4.923-9.514.628.628,0,0,1-.234-.837.615.615,0,0,1,.837-.234,11.607,11.607,0,0,1,5.551,10.671.615.615,0,0,1-.665.566Z" transform="translate(42.74 28.301)" fill="#fff"/>
    <path id="Path_268" data-name="Path 268" d="M77.463,187.929H72.785a.615.615,0,0,1,0-1.231h4.677a4.234,4.234,0,1,0,0-8.456.628.628,0,0,1-.615-.615.615.615,0,0,1,.615-.615,5.465,5.465,0,1,1,0,10.917Z" transform="translate(6.288 30.69)" fill="#d1d3d4"/>
    <path id="Path_269" data-name="Path 269" d="M92.186,187.91c0,2.991-10.154,5.416-22.672,5.416S46.83,190.864,46.83,187.91Z" transform="translate(0.439 33.207)" fill="#fff"/>
    <path id="Path_270" data-name="Path 270" d="M69.63,194.056c-11.3,0-23.3-2.117-23.3-6.031a.615.615,0,0,1,.615-.615H92.3a.615.615,0,0,1,.615.615C92.917,191.939,80.916,194.056,69.63,194.056Zm-21.823-5.416c1.477,1.92,9.5,4.185,21.823,4.185s20.346-2.228,21.835-4.185Z" transform="translate(0.323 33.091)" fill="#d1d3d4"/>
    <path id="Path_271" data-name="Path 271" d="M79.894,191.162H56.643L52.2,173.82H84.337Z" transform="translate(1.678 29.954)" fill="#fff"/>
    <path id="Path_272" data-name="Path 272" d="M80.008,191.893H56.757a.6.6,0,0,1-.591-.468l-4.443-17.342a.628.628,0,0,1,.111-.529.615.615,0,0,1,.492-.234H84.451a.628.628,0,0,1,.492.234.665.665,0,0,1,.111.529l-4.443,17.305A.628.628,0,0,1,80.008,191.893Zm-22.77-1.231h22.3l4.123-16.112H53.114Z" transform="translate(1.564 29.839)" fill="#d1d3d4"/>
    <rect id="Rectangle_83" data-name="Rectangle 83" width="49.639" height="8.714" transform="translate(421.649 226.545) rotate(180)" fill="#fff"/>
    <path id="Path_273" data-name="Path 273" d="M360.425,194.687H310.785a.615.615,0,0,1-.615-.615v-8.727a.615.615,0,0,1,.615-.615h49.639a.628.628,0,0,1,.615.615v8.727a.628.628,0,0,1-.615.615ZM311.4,193.457h48.408v-7.5H311.4Z" transform="translate(61.224 32.473)" fill="#d1d3d4"/>
    <rect id="Rectangle_84" data-name="Rectangle 84" width="56.938" height="8.714" transform="translate(435.877 217.818) rotate(180)" fill="#fff"/>
    <path id="Path_274" data-name="Path 274" d="M373.363,187.6H316.425a.615.615,0,0,1-.615-.615v-8.714a.615.615,0,0,1,.615-.615h56.938a.615.615,0,0,1,.615.615v8.714A.615.615,0,0,1,373.363,187.6Zm-56.323-1.231h55.707v-7.483H317.041Z" transform="translate(62.526 30.839)" fill="#d1d3d4"/>
    <rect id="Rectangle_85" data-name="Rectangle 85" width="56.938" height="8.714" transform="translate(430.794 209.104) rotate(180)" fill="#fff"/>
    <path id="Path_275" data-name="Path 275" d="M369.223,180.517H312.285a.615.615,0,0,1-.615-.615v-8.727a.615.615,0,0,1,.615-.615h56.938a.615.615,0,0,1,.615.615V179.9A.615.615,0,0,1,369.223,180.517ZM312.9,179.287h55.707v-7.5H312.9Z" transform="translate(61.571 29.202)" fill="#d1d3d4"/>
    <rect id="Rectangle_86" data-name="Rectangle 86" width="26.081" height="8.714" transform="translate(428.406 226.545) rotate(180)" fill="#231f20"/>
    <path id="Path_276" data-name="Path 276" d="M361.5,194.687H335.415a.615.615,0,0,1-.615-.615v-8.727a.615.615,0,0,1,.615-.615H361.5a.615.615,0,0,1,.615.615v8.727A.615.615,0,0,1,361.5,194.687Zm-25.466-1.231h24.863v-7.5H336.031Z" transform="translate(66.91 32.473)" fill="#231f20"/>
    <rect id="Rectangle_87" data-name="Rectangle 87" width="29.909" height="8.714" transform="translate(435.89 217.818) rotate(180)" fill="#231f20"/>
    <path id="Path_277" data-name="Path 277" d="M368.3,187.6H338.375a.615.615,0,0,1-.615-.615v-8.714a.615.615,0,0,1,.615-.615H368.3a.615.615,0,0,1,.615.615v8.714A.615.615,0,0,1,368.3,187.6Zm-29.306-1.231h28.691v-7.483H338.991Z" transform="translate(67.593 30.839)" fill="#231f20"/>
    <rect id="Rectangle_88" data-name="Rectangle 88" width="29.909" height="8.714" transform="translate(433.206 209.104) rotate(180)" fill="#231f20"/>
    <path id="Path_278" data-name="Path 278" d="M366.114,180.517H336.205a.615.615,0,0,1-.615-.615v-8.727a.615.615,0,0,1,.615-.615h29.909a.615.615,0,0,1,.615.615V179.9A.615.615,0,0,1,366.114,180.517Zm-29.294-1.231H365.5v-7.5H336.821Z" transform="translate(67.092 29.202)" fill="#231f20"/>
  </g>
</svg>
