<svg xmlns="http://www.w3.org/2000/svg" width="46.5" height="46.5" viewBox="0 0 46.5 46.5"><defs><style>.a{fill:#fff;}</style></defs><path class="a" d="M23.25,4.191c6.208,0,6.944.023,9.4.136,6.3.287,9.244,3.276,9.531,9.531.112,2.451.134,3.187.134,9.395s-.023,6.944-.134,9.395c-.289,6.248-3.224,9.244-9.531,9.531-2.453.112-3.185.136-9.4.136s-6.944-.023-9.395-.136c-6.316-.289-9.244-3.292-9.531-9.533-.112-2.451-.136-3.185-.136-9.395s.025-6.942.136-9.395C4.613,7.6,7.549,4.611,13.855,4.325c2.453-.11,3.187-.134,9.395-.134ZM23.25,0c-6.314,0-7.1.027-9.585.139C5.222.527.529,5.212.141,13.663.027,16.145,0,16.936,0,23.25s.027,7.107.139,9.587C.527,41.28,5.212,45.973,13.663,46.361c2.482.112,3.272.139,9.587.139s7.107-.027,9.587-.139c8.436-.388,13.14-5.072,13.522-13.524.114-2.48.141-3.272.141-9.587s-.027-7.1-.139-9.585C45.981,5.229,41.29.529,32.839.141,30.357.027,29.564,0,23.25,0Zm0,11.311A11.94,11.94,0,1,0,35.189,23.25,11.939,11.939,0,0,0,23.25,11.311ZM23.25,31A7.75,7.75,0,1,1,31,23.25,7.749,7.749,0,0,1,23.25,31ZM35.662,8.05a2.79,2.79,0,1,0,2.788,2.79A2.791,2.791,0,0,0,35.662,8.05Z"/></svg>