<svg xmlns="http://www.w3.org/2000/svg" xmlns:xlink="http://www.w3.org/1999/xlink" width="376.443" height="283.361" viewBox="0 0 376.443 283.361">
  <defs>
    <linearGradient id="linear-gradient" x1="0.673" y1="-0.15" x2="0.368" y2="0.7" gradientUnits="objectBoundingBox">
      <stop offset="0" stop-color="#d4a397"/>
      <stop offset="0.99" stop-color="#ffd6a9"/>
    </linearGradient>
    <linearGradient id="linear-gradient-2" x1="0.51" y1="0.445" x2="0.472" y2="0.565" xlink:href="#linear-gradient"/>
    <linearGradient id="linear-gradient-3" x1="0.92" y1="-0.025" x2="0.327" y2="0.71" xlink:href="#linear-gradient"/>
    <linearGradient id="linear-gradient-4" x1="0.749" y1="0.067" x2="0.302" y2="0.823" xlink:href="#linear-gradient"/>
  </defs>
  <g id="web_development_" transform="translate(-15.064 -9.238)">
    <path id="Path_394" data-name="Path 394" d="M181.42,68.43,20.17,162.23a10.27,10.27,0,0,0,.15,17.84L217.71,290.53a16.26,16.26,0,0,0,15.64.13L385,209.1a12.36,12.36,0,0,0,.38-21.56Z" fill="#ffd6a9"/>
    <path id="Path_395" data-name="Path 395" d="M70,133.66,50.07,145.24s1.11,16.91,21.51,14.29l36.77-20.14" fill="url(#linear-gradient)"/>
    <ellipse id="Ellipse_26" data-name="Ellipse 26" cx="22.17" cy="10.96" rx="22.17" ry="10.96" transform="translate(69.98 120.96)" fill="#f3a71c"/>
    <path id="Path_396" data-name="Path 396" d="M114.31,102.73v29.8s-16.5,15.27-44.33.25v-30" fill="#f3a71c"/>
    <path id="Path_397" data-name="Path 397" d="M73.3,113.38s-3.67-5.62-7.13-2.38-.43,14.48,9.72,15.56v4.54s-12.75-1.73-14.48-13.18S67.9,104.7,72,107.85" fill="#f3a71c"/>
    <path id="Path_398" data-name="Path 398" d="M198.79,142.39l-19.13,9.21a4.4,4.4,0,0,0-.31,7.77l45.35,26.45a4.4,4.4,0,0,0,5.92-1.42l11-17.14" fill="#56403d"/>
    <path id="Path_399" data-name="Path 399" d="M155.32,200.1,80.04,160.46l-11.5,7.5,122.76,67.2,16.9-11.05" fill="url(#linear-gradient-2)"/>
    <path id="Path_400" data-name="Path 400" d="M220.21,237.67l-17.92,10.62s11.75,11.26,25.43,17l16.63-10.86" fill="url(#linear-gradient-3)"/>
    <path id="Path_401" data-name="Path 401" d="M218.49,230.06v8.38l25.86,16,31.03-18.96v-7.14" fill="#6de1fc"/>
    <path id="Path_402" data-name="Path 402" d="M218.49,230.06v8.38l25.86,16,31.03-18.96v-7.14" fill="#e54c3c"/>
    <path id="Path_403" data-name="Path 403" d="M275.38,228.34l-26.35-15.76-30.54,17.48,26.35,16.01Z" fill="#f5604b"/>
    <path id="Path_404" data-name="Path 404" d="M250.37,234a13.28,13.28,0,0,1-1.73-2.69c-.11-.64,1.45-3.69,1.74-3.6a14.731,14.731,0,0,1,2.92,1.93" fill="#c67445"/>
    <path id="Path_405" data-name="Path 405" d="M250.65,229c.06.24-.86,4.83-.28,5a19.879,19.879,0,0,0,3.69,0,45.5,45.5,0,0,0,.42-5" fill="#56403d"/>
    <path id="Path_406" data-name="Path 406" d="M255,223.14l-4.62,1.29c0,.11-.76,4.27-.18,4.89a23.119,23.119,0,0,0,2.3,1.44,35.675,35.675,0,0,0,.25,4.35,2.26,2.26,0,0,0,.83,0c.19-1.51.45-4.58.45-4.58s1.35-.47,1.43-.89S255,223.14,255,223.14Z" fill="#c67445"/>
    <path id="Path_407" data-name="Path 407" d="M264.41,255.67a17.223,17.223,0,0,1-2.16-3.36c-.16-.81,1.81-4.61,2.18-4.5a18.38,18.38,0,0,1,3.64,2.41" fill="#c67445"/>
    <path id="Path_408" data-name="Path 408" d="M264.76,249.41c.07.3-1.08,6-.35,6.26a24.81,24.81,0,0,0,4.61,0c.24,0,.52-6.26.52-6.26" fill="#56403d"/>
    <path id="Path_409" data-name="Path 409" d="M270.2,242.15l-5.77,1.61c0,.14-.95,5.33-.23,6.1s2.92,1.66,2.87,1.8a44.5,44.5,0,0,0,.31,5.42,2.811,2.811,0,0,0,1,0c.23-1.89.56-5.72.56-5.72s1.69-.59,1.78-1.11S270.2,242.15,270.2,242.15Z" fill="#c67445"/>
    <path id="Path_410" data-name="Path 410" d="M302.88,98.07,150.28,10.16a6.88,6.88,0,0,0-10.32,6v91.45a5.72,5.72,0,0,0,2.86,5L305.48,206.5a3.69,3.69,0,0,0,5.54-3.2V112.15a16.249,16.249,0,0,0-8.139-14.079Z" fill="#472e8b"/>
    <path id="Path_411" data-name="Path 411" d="M150.3,17.07l148,85.13a10.37,10.37,0,0,1,5.2,9v68.56a3.75,3.75,0,0,1-5.61,3.25L147,96.41a3.69,3.69,0,0,1-1.86-3.2V20.08a3.48,3.48,0,0,1,5.16-3.01Z" fill="#fff"/>
    <path id="Path_412" data-name="Path 412" d="M141.3,118.5c2.72-.45,34.23,19.27,34.23,19.27v7.71l-12.92,7.25-35.13-19.27V124.4Z" fill="#6de1fc"/>
    <path id="Path_413" data-name="Path 413" d="M141.3,118.5c2.72-.45,34.23,19.27,34.23,19.27v7.71l-12.92,7.25-35.13-19.27V124.4Z" fill="#f1a317"/>
    <path id="Path_414" data-name="Path 414" d="M120,137.64,80,160.46a2.74,2.74,0,0,0,0,4.75L190.91,229a8.86,8.86,0,0,0,8.85,0l37.35-21.57a2.86,2.86,0,0,0,0-5l-112.2-64.81a5,5,0,0,0-4.91.02Z" fill="#974c26"/>
    <path id="Path_415" data-name="Path 415" d="M145.62,212.31a3.28,3.28,0,0,0-1.85-2.44l-5.92-3.42-9.15-5.3-10.93-6.33-11.63-6.74-11.25-6.51-9.78-5.66-7.23-4.19-3.8-2.2c0,.08-.13.08-.21.06a2.71,2.71,0,0,0-3.31,3.3,8.62,8.62,0,0,0,3.27,4.27,131.381,131.381,0,0,0,13.83,8.68v-1.71c-3.22-1.76-10.16-5.74-13.08-8.74l1.39.81,3.83,2.24,5.76,3.37,7.19,4.2,8.12,4.74,8.54,5,8.46,4.95,7.88,4.6,6.79,4,5.2,3c1.59.93,3.31,2.19,5.16,2.55a2.54,2.54,0,0,0,2.72-2.53Z" fill="#6de1fc"/>
    <path id="Path_416" data-name="Path 416" d="M145.62,212.31a3.28,3.28,0,0,0-1.85-2.44l-5.92-3.42-9.15-5.3-10.93-6.33-11.63-6.74-11.25-6.51-9.78-5.66-7.23-4.19-3.8-2.2c0,.08-.13.08-.21.06a2.71,2.71,0,0,0-3.31,3.3,8.62,8.62,0,0,0,3.27,4.27,131.381,131.381,0,0,0,13.83,8.68v-1.71c-3.22-1.76-10.16-5.74-13.08-8.74l1.39.81,3.83,2.24,5.76,3.37,7.19,4.2,8.12,4.74,8.54,5,8.46,4.95,7.88,4.6,6.79,4,5.2,3c1.59.93,3.31,2.19,5.16,2.55a2.54,2.54,0,0,0,2.72-2.53Z" fill="#999a1c"/>
    <ellipse id="Ellipse_27" data-name="Ellipse 27" cx="3.22" cy="3.68" rx="3.22" ry="3.68" transform="translate(207.996 139.767) rotate(-10.9)" fill="#ab643c"/>
    <path id="Path_417" data-name="Path 417" d="M212.43,65.38l43.13,25a2.81,2.81,0,0,1,1.4,2.54l-1.49,38.71a2.81,2.81,0,0,1-4.21,2.33l-41.64-23.93a2.81,2.81,0,0,1-1.41-2.44V67.82a2.81,2.81,0,0,1,4.22-2.44Z" fill="#a8a93d"/>
    <path id="Path_418" data-name="Path 418" d="M227.88,72.17a.532.532,0,0,0,0-.09l-.16-1.35c-1.67-.08-2.62.32-4.29.33a5.81,5.81,0,0,0-1.57,3.09c0,.83.1,2,1.12,1.88.16.77.61,1.78,1.52,1.57l.12-.05c.06.51.22,1,.71,1.15s.8-.12,1-.57c.18.68.5,1.72,1.19,1.71.94,0,1-1.39.76-2.77a35.749,35.749,0,0,0-.4-4.9Z" fill="#fbb5ad"/>
    <path id="Path_419" data-name="Path 419" d="M223.22,73.7a6.05,6.05,0,0,0-.34,2.33.19.19,0,0,0,.38,0,5.78,5.78,0,0,1,.33-2.23C223.67,73.57,223.3,73.47,223.22,73.7Z" fill="#56403d"/>
    <path id="Path_420" data-name="Path 420" d="M224.62,74.46l-.16,3.21a.19.19,0,0,0,.38,0l.16-3.21A.19.19,0,0,0,224.62,74.46Z" fill="#56403d"/>
    <path id="Path_421" data-name="Path 421" d="M226,74v4.25a.19.19,0,0,0,.38,0V74a.19.19,0,1,0-.38,0Z" fill="#56403d"/>
    <path id="Path_422" data-name="Path 422" d="M227.7,70.73a7.72,7.72,0,0,1,2.11,4.8L228,74.39Z" fill="#fbb5ad"/>
    <path id="Path_423" data-name="Path 423" d="M244.52,79.79s-1.34.24-1.37.22c-1.16.73-4.11,2.24-5.34,2.83-.73.35-2.54,1.11-2.14,2.21.21.59.8.69,1.56.52a.71.71,0,0,0,.32.85,1.43,1.43,0,0,0,1.47-.16.81.81,0,0,0,.29.47c.63.54,1.83-.06,2.52-.38a2,2,0,0,0,0,.38c0,.4.4.79.77.59,1.77-.94,4.55-4.37,5.36-6C246.28,80.68,246.17,80.49,244.52,79.79Z" fill="#fbb5ad"/>
    <path id="Path_424" data-name="Path 424" d="M243.32,84.62a8.481,8.481,0,0,1-1.64,1.72c-.18.14.07.38.25.25a8.79,8.79,0,0,0,1.7-1.79C243.75,84.62,243.45,84.44,243.32,84.62Z" fill="#56403d"/>
    <path id="Path_425" data-name="Path 425" d="M242.27,83.73q-1.53,1.22-3.12,2.36c-.18.13,0,.43.18.3Q241,85.22,242.52,84C242.69,83.84,242.44,83.59,242.27,83.73Z" fill="#56403d"/>
    <path id="Path_426" data-name="Path 426" d="M240.62,83.29a22.18,22.18,0,0,1-3.46,2c-.2.1,0,.4.18.3a22.18,22.18,0,0,0,3.46-2C241,83.46,240.8,83.16,240.62,83.29Z" fill="#56403d"/>
    <path id="Path_427" data-name="Path 427" d="M243.15,80s-1.69-1.24-4.54.66L241,82.15" fill="#fbb5ad"/>
    <path id="Path_428" data-name="Path 428" d="M280.44,146.09a.53.53,0,0,0-.7-.34,6,6,0,0,0,0-1c0-.47-.09-1.14-.6-1.34a.73.73,0,0,0-.84.25,5.389,5.389,0,0,0-.25-.9.54.54,0,0,0-.51-.38c-.57,0-.86.46-1,1,0-.05-.21-.24-.26-.27a.58.58,0,0,0-.32-.11.91.91,0,0,0-.6.18.94.94,0,0,0-.28.61,4.839,4.839,0,0,0,0,1.15c0,.47.1.93.13,1.4s0,.66,0,1c-.44-.85-1.06-1.91-1.78-1.41s-.09,1.18.11,1.65a18.511,18.511,0,0,0,1.46,2.68,9.65,9.65,0,0,1-.31,1.24,28.069,28.069,0,0,1,3.87,1.94,34.067,34.067,0,0,1,1.43-3.9A4.55,4.55,0,0,0,280.44,146.09Z" fill="#fbb5ad"/>
    <path id="Path_429" data-name="Path 429" d="M276.44,143.37q-.06,1.94-.21,3.87a.085.085,0,0,0,.17,0q.15-1.93.21-3.87A.085.085,0,1,0,276.44,143.37Z" fill="#56403d"/>
    <path id="Path_430" data-name="Path 430" d="M278.18,143.7q-.17,1.75-.42,3.48c0,.11.15.16.17,0q.26-1.76.43-3.53C278.36,143.59,278.19,143.59,278.18,143.7Z" fill="#56403d"/>
    <path id="Path_431" data-name="Path 431" d="M279.7,145.86q-.13,1.22-.38,2.42c0,.11.15.16.17,0q.25-1.22.38-2.46C279.88,145.75,279.71,145.75,279.7,145.86Z" fill="#56403d"/>
    <path id="Path_432" data-name="Path 432" d="M240.17,145.89c-.12-.27-.24-.54-.35-.82a.91.91,0,0,1-.07-.46,10.112,10.112,0,0,0,.18-1.28,11.35,11.35,0,0,0-.81-4,1.37,1.37,0,0,0-2.06-.74l-.37-.67c-.69-1.22-1.43-3.32-3-3.48a.75.75,0,0,0-.72,1q.45,1.185.93,2.34a.72.72,0,0,0-1.05,0,1.29,1.29,0,0,0-.25,1.45h-.19a1.29,1.29,0,0,0-.54-.14,1.05,1.05,0,0,0-.77.41,1.11,1.11,0,0,0-.16,1h-.13a1,1,0,0,0-.62.68,1.27,1.27,0,0,0,0,.64c-.08.78,4,4.6,4,4.6l2.42,2.65,4.06-1.93A5.353,5.353,0,0,0,240.17,145.89Z" fill="#fbb5ad"/>
    <path id="Path_433" data-name="Path 433" d="M267.7,182.71c-7.21-12.32-14-.28-14-.28A45.05,45.05,0,0,0,247.25,195c-1.66,5.66-1.65,24-.83,29.46,3,1.16,9.71.81,12.84-.08v-22a.27.27,0,0,1,.53,0l.15,43.69a39.36,39.36,0,0,0,15.44-2.54S274.48,194.3,267.7,182.71Z" fill="#f3a71c"/>
    <path id="Path_434" data-name="Path 434" d="M240.22,144.66c-2.17.53-3.65,1.67-5.53,2.87.69,2.42,8.25,21.32,17.76,25.32l.76-13.45S249,159,240.22,144.66Z" fill="#f5604b"/>
    <path id="Path_435" data-name="Path 435" d="M273.49,150.53A15.83,15.83,0,0,1,266.12,162l1.29,12.35c5.77-3.71,11.85-17.5,12.74-21.1a9.37,9.37,0,0,0-6.66-2.72Z" fill="#f5604b"/>
    <path id="Path_436" data-name="Path 436" d="M251.37,173.61l1.27,11.07s9.12,3.45,15.87,0V173.46" fill="#f5604b"/>
    <path id="Path_437" data-name="Path 437" d="M272.8,170.43a4.92,4.92,0,0,0-.9-1.71,18.429,18.429,0,0,0-2.08-2.06,1.42,1.42,0,0,1-.42-.55c-.31-.94.79-2.38.64-3.53-.23-1.7-1.31-2.27-2.37-3.39a3.79,3.79,0,0,1-1.07-2.12,18.361,18.361,0,0,1-1.4-3.84c-.77-2.17-2-4.57-4.33-5.36a7.19,7.19,0,0,0-7.41,1.9c-1.6,1.83-1.29,4.32-1.47,6.61a2.25,2.25,0,0,1,.21.66c.31,2.22-2.61,2.32-2.88,4.08a3.21,3.21,0,0,0,.05,1,7.58,7.58,0,0,0,1.58,3.44c2,2.7-2.65,4.09-2.63,6.59a5.13,5.13,0,0,0,2.85,4.28,18.82,18.82,0,0,0,12.74,1.45C267.11,177.15,273.9,174.49,272.8,170.43ZM255,166.31v-.16h.18Z" fill="#56403d"/>
    <path id="Path_438" data-name="Path 438" d="M259.26,202.36l-10.14-2.26,9.64,7.52Z" fill="#56403d"/>
    <path id="Path_439" data-name="Path 439" d="M235.32,140.19a33.069,33.069,0,0,1-2-4.87c-.08-.26-.5-.15-.41.11a33.769,33.769,0,0,0,2,5A.241.241,0,0,0,235.32,140.19Z" fill="#56403d"/>
    <path id="Path_440" data-name="Path 440" d="M233.73,141.19a19.5,19.5,0,0,1-1.06-2.09c-.11-.25-.48,0-.37.22a19.523,19.523,0,0,0,1.06,2.09.215.215,0,0,0,.37-.22Z" fill="#56403d"/>
    <path id="Path_441" data-name="Path 441" d="M232.19,142.3a6.26,6.26,0,0,1-1-1.9c-.08-.26-.5-.15-.41.11a6.59,6.59,0,0,0,1,2C232,142.74,232.36,142.52,232.19,142.3Z" fill="#56403d"/>
    <path id="Path_442" data-name="Path 442" d="M238.55,141.05q-.62-1.26-1.14-2.57c-.1-.25-.52-.14-.41.11q.54,1.36,1.18,2.67C238.3,141.52,238.67,141.3,238.55,141.05Z" fill="#56403d"/>
    <path id="Path_443" data-name="Path 443" d="M143.4,63.9a.62.62,0,0,0,.09-.34,4.29,4.29,0,0,0-1.35-3.16,1.48,1.48,0,0,0-2.31.42c-.94,1.93,1.21,3.86,2.93,4.09.48.06.67-.34.59-.72a.66.66,0,0,0,.05-.29Z" fill="#fbb5ad"/>
    <path id="Path_444" data-name="Path 444" d="M141.69,97.26l-3.46-1.93,2.88,7.88Z" fill="#382624"/>
    <path id="Path_445" data-name="Path 445" d="M180.29,174l-11.4,6.75,8.46,4.91c2.39-1.39,9.23-5.43,11.43-6.73Z" fill="#fff"/>
    <path id="Path_446" data-name="Path 446" d="M167.8,166.76l-11.4,6.75,10.71,6.22c1.87-1.08,8.78-5.16,11.44-6.73Z" fill="#fff"/>
    <path id="Path_447" data-name="Path 447" d="M122.44,140.42l-11.58,6.65,10.3,6c1.63-.94,8.62-5.07,11.44-6.73Z" fill="#fff"/>
    <path id="Path_448" data-name="Path 448" d="M146.83,154.58l-11.4,6.75,8.46,4.91c2-1.16,8.87-5.22,11.44-6.73Z" fill="#fff"/>
    <path id="Path_449" data-name="Path 449" d="M134.34,147.33l-11.4,6.75,10.71,6.22c1.26-.72,8.43-5,11.44-6.73Z" fill="#fff"/>
    <path id="Path_450" data-name="Path 450" d="M190.52,180l-11.4,6.75,8.09,4.7c2.43-1.42,9.28-5.46,11.43-6.73Z" fill="#fff"/>
    <path id="Path_451" data-name="Path 451" d="M157.06,160.52l-11.4,6.75,9,5.2c2.11-1.22,9-5.27,11.44-6.73Z" fill="#fff"/>
    <path id="Path_452" data-name="Path 452" d="M200.39,185.68,189,192.44l10.71,6.22c2.24-1.3,9.08-5.34,11.43-6.73Z" fill="#fff"/>
    <path id="Path_453" data-name="Path 453" d="M212.88,192.94l-11.39,6.75,19.22,11.16,11.57-6.65Z" fill="#fff"/>
    <path id="Path_454" data-name="Path 454" d="M109.39,149l-11.58,6.65,15,8.69c2-1.14,8.84-5.2,11.44-6.73Z" fill="#fff"/>
    <path id="Path_455" data-name="Path 455" d="M138.44,165.91,127,172.66l8.46,4.91c2.26-1.32,9.1-5.35,11.43-6.73Z" fill="#fff"/>
    <path id="Path_456" data-name="Path 456" d="M159.41,178.09,148,184.84l10.71,6.22c2.15-1.25,9-5.29,11.44-6.73Z" fill="#fff"/>
    <path id="Path_457" data-name="Path 457" d="M148.68,171.85l-11.4,6.75,9,5.2c2.35-1.37,9.19-5.41,11.43-6.73Z" fill="#fff"/>
    <path id="Path_458" data-name="Path 458" d="M171.9,185.34l-11.4,6.75L169,197c2.61-1.53,9.5-5.59,11.43-6.73Z" fill="#fff"/>
    <path id="Path_459" data-name="Path 459" d="M182.14,191.28,170.74,198l8.09,4.7c2.66-1.55,9.56-5.62,11.43-6.73Z" fill="#fff"/>
    <path id="Path_460" data-name="Path 460" d="M126,158.66l-11.4,6.75,10.71,6.22c1.7-1,8.66-5.09,11.44-6.73Z" fill="#fff"/>
    <path id="Path_461" data-name="Path 461" d="M192,197l-11.4,6.75L191.32,210c2.48-1.44,9.32-5.49,11.43-6.73Z" fill="#fff"/>
    <path id="Path_462" data-name="Path 462" d="M193.1,211.02l14.55,8.45,11.58-6.65-14.74-8.55Z" fill="#fff"/>
    <path id="Path_463" data-name="Path 463" d="M184.58,209.86l-8.48,5.04,9.83,5.69,8.61-4.94Z" fill="#fff"/>
    <path id="Path_464" data-name="Path 464" d="M187.96,221.77l8.36,4.84,8.62-4.92-8.51-4.95Z" fill="#fff"/>
    <path id="Path_465" data-name="Path 465" d="M95.1,157.9l-8.87,4.93,10.07,5.83,8.71-5Z" fill="#fff"/>
    <path id="Path_466" data-name="Path 466" d="M106.89,164.75l-8.56,5.08,10.75,6.23,8.7-4.99Z" fill="#fff"/>
    <path id="Path_467" data-name="Path 467" d="M119.67,172.17l-8.55,5.07,62.93,36.47,8.63-4.95Z" fill="#fff"/>
    <ellipse id="Ellipse_28" data-name="Ellipse 28" cx="10.68" cy="17.5" rx="10.68" ry="17.5" transform="translate(150.587 32.047) rotate(-1.62)" fill="#e2e2e2"/>
    <ellipse id="Ellipse_29" data-name="Ellipse 29" cx="16.105" cy="10.723" rx="16.105" ry="10.723" transform="translate(147.332 61.348) rotate(-84.857)" fill="#e35541"/>
    <ellipse id="Ellipse_30" data-name="Ellipse 30" cx="4.67" cy="4.22" rx="4.67" ry="4.22" transform="translate(154.638 48.738) rotate(-84.67)" fill="#fff"/>
    <path id="Path_468" data-name="Path 468" d="M150.11,54.73s2.5-5.53,6.94-4.83,7.26,3,9.09,9.25a8.81,8.81,0,0,1-9.94,3.42,10.6,10.6,0,0,1-6.09-7.84Z" fill="#fff"/>
    <path id="Path_469" data-name="Path 469" d="M173.21,51.21a.89.89,0,0,0-.09-.18,1.29,1.29,0,0,0,.4-1,.91.91,0,0,0-.36-.63.67.67,0,0,0-.64-1.1c-1,.19-1.62,1.47-2.14,2.23-.39.56-.75,1.14-1.09,1.72-.06-.84-.18-1.69-.24-2.48s-1.29-.84-1.29,0a12,12,0,0,1-.39,3.76,1.21,1.21,0,0,0-.34.25,30.7,30.7,0,0,1-13.2,8.16,1.21,1.21,0,0,0,.13,2.33,1.19,1.19,0,0,0,.86,1.06,1.35,1.35,0,0,0,.64.9l-.85.37c-1.38.58-.77,2.86.63,2.28A33.81,33.81,0,0,0,168.69,58.7c.41-.39.81-.78,1.21-1.19.62-.63,3.62-3.64,2.88-4.93C173,52.13,173.43,51.79,173.21,51.21Z" fill="#fbb5ad"/>
    <path id="Path_470" data-name="Path 470" d="M152.41,37.19c-1.41.56-2.5,3.6-2.38,4.24l1.11-.56.2-.22A13.35,13.35,0,0,1,152.41,37.19Z" fill="#fbb5ad"/>
    <path id="Path_471" data-name="Path 471" d="M152.6,39.66a.82.82,0,0,0-.25-.12l-.09-.08c-.55-.43-1.4.13-1.9.4a10.55,10.55,0,0,0-1.8,1.2,3.16,3.16,0,0,0-.53,1.16c-.21.5-.42,1-.66,1.49a27.59,27.59,0,0,1-1.65,3,28.31,28.31,0,0,1-4.2,5.13c-.74.72.39,1.84,1.13,1.12l.53-.53a.68.68,0,0,0,.75,0,3,3,0,0,0,.37-.3l.17-.14a.79.79,0,0,0,1.29.28l.54-.57a.7.7,0,0,0,.39-.36s.08,1.09.1,1.06c.87-.92,1.9-3.47,2.77-5a.32.32,0,0,1,.05-.2,5.15,5.15,0,0,0,.67-3,11.75,11.75,0,0,1,.19-2.14l1.42-1.1c.34-.26.71-.65.64-1a.82.82,0,0,0,.07-.3Z" fill="#fbb5ad"/>
    <path id="Path_472" data-name="Path 472" d="M157.89,59.7c-5.05,1.48-5.92.92-8.31.84s-4.93-3.43-4.93-3.43-.6-7.49-5.07-1.63c-3.33,4.38-4.61,17.06-5,23.2a12.31,12.31,0,0,0,5.94,2.12,25.49,25.49,0,0,0,4.15.35,6.17,6.17,0,0,0,2.48-.54l2.37-11a17,17,0,0,0,10.7-3.07Z" fill="#472e8b"/>
    <path id="Path_473" data-name="Path 473" d="M147,50.69s3.25,6.24,0,8-5.73-1.15-6-1.9a5.18,5.18,0,0,1,6-6.1Z" fill="#fbb5ad"/>
    <path id="Path_474" data-name="Path 474" d="M147.28,49.76A6.74,6.74,0,0,0,141.7,49a8.18,8.18,0,0,0-4.32,2.27,2.77,2.77,0,0,0-1.4-.47,2.88,2.88,0,0,0-2.88,1.78,2.49,2.49,0,0,0,1,2.93,3.14,3.14,0,0,0,2.38.22v.15c.11,1.18-1,1.77-1.44,2.77a2.33,2.33,0,0,0-.17,1.46c.11.49.62,1,.61,1.52a2.35,2.35,0,0,1-.52,1,5.2,5.2,0,0,0-.56,1.09,11.75,11.75,0,0,0,7.8.73,13.12,13.12,0,0,0,7.29-3.93,1.94,1.94,0,0,0-.49-.67,7.251,7.251,0,0,0-1.39-.73c-.69-.4,0-1.61,0-2.26,0-1.12-.86-1.59-1.79-2-.67-.28-.7-.69-.71-1.37a2.58,2.58,0,0,1,.32-1.56.87.87,0,0,0,.58-.12,4.789,4.789,0,0,1,1.11-.49.79.79,0,0,0,.48-1,.65.65,0,0,0-.32-.56Z" fill="#56403d"/>
    <path id="Path_475" data-name="Path 475" d="M144.82,52.25a12.57,12.57,0,0,0,3-1.07c0-.1.31-4-6.58-2.64s-3.62,9.59-3.62,9.59" fill="#56403d"/>
    <path id="Path_476" data-name="Path 476" d="M210.15,61.08l48.22,28.38a3.2,3.2,0,0,1,1.56,2.88l-1.67,43.91a3.14,3.14,0,0,1-4.71,2.64L207,111.75a3.2,3.2,0,0,1-1.58-2.77V63.84a3.15,3.15,0,0,1,4.73-2.76Z" fill="none" stroke="#56403d" stroke-linecap="round" stroke-miterlimit="10" stroke-width="1" stroke-dasharray="3.04 5.06"/>
    <path id="Path_477" data-name="Path 477" d="M239.88,48.71c-1.93-.89-6.51-3.91-12.29-1.13s-11.26,7.92-5.29,23.06a8.6,8.6,0,0,0,6,.06s-1.23-13.25.63-14.79L248.35,66.7a13,13,0,0,1-6.77,12.54l5.35,4.91c4.38-.07,14-14,11-23.9S238.55,48.2,238.55,48.2" fill="#6de1fc"/>
    <path id="Path_478" data-name="Path 478" d="M239.88,48.71c-1.93-.89-6.51-3.91-12.29-1.13s-11.26,7.92-5.29,23.06a8.6,8.6,0,0,0,6,.06s-1.23-13.25.63-14.79L248.35,66.7a13,13,0,0,1-6.77,12.54l5.35,4.91c4.38-.07,14-14,11-23.9S238.55,48.2,238.55,48.2" fill="#be6b3d"/>
    <path id="Path_479" data-name="Path 479" d="M246.07,47.89c-1.32,1.46-3.85.8-5.52.42-2-.46-4.35-1.69-4.17-4.1a.285.285,0,0,0-.57,0c-.19,2.51,2.1,4,4.27,4.57,1.93.48,4.85,1.21,6.39-.49C246.71,48,246.31,47.62,246.07,47.89Z" fill="#009245"/>
    <path id="Path_480" data-name="Path 480" d="M235.27,42.69s0,12.29,4.51,13.09c5,.88,7.74-4.75,7.74-4.75s.64-10.86-4.29-11.81S235.42,41.12,235.27,42.69Z" fill="#fbb5ad"/>
    <path id="Path_481" data-name="Path 481" d="M239.06,51a.85.85,0,0,1-.34-.05,34.405,34.405,0,0,1,.46-3.42.32.32,0,0,0-.63-.11,34.391,34.391,0,0,0-.49,3.66.34.34,0,0,0,.18.35,1.61,1.61,0,0,0,.87.22A.326.326,0,0,0,239.06,51Z" fill="#56403d"/>
    <path id="Path_482" data-name="Path 482" d="M241.14,51.23a1.8,1.8,0,0,1-2.3,1c-.26-.09-.37.32-.11.41a2.22,2.22,0,0,0,2.78-1.16C241.63,51.2,241.26,51,241.14,51.23Z" fill="#56403d"/>
    <path id="Path_483" data-name="Path 483" d="M240.58,49.49a.32.32,0,1,0,.32.32.32.32,0,0,0-.32-.32Z" fill="#56403d"/>
    <path id="Path_484" data-name="Path 484" d="M236.61,48.63a.32.32,0,1,0,.32.32A.32.32,0,0,0,236.61,48.63Z" fill="#56403d"/>
    <path id="Path_485" data-name="Path 485" d="M244,49.81s1.19-4.72,2.51-3.16-2.14,4.95-2.14,4.95" fill="#fbb5ad"/>
    <path id="Path_486" data-name="Path 486" d="M245.23,37.69s4.4.47,5.68,4-2,10.47-4.37,11.56l2.86-6.12L249.26,43Z" fill="#5c2e2e"/>
    <path id="Path_487" data-name="Path 487" d="M250.84,43.24c-.36-2.45-2-3.64-4.11-4.9l-.53-.28a3.52,3.52,0,0,0,1-1.24.32.32,0,0,0-.28-.48,2,2,0,0,0-1.45.71,4.77,4.77,0,0,0-1-1.35.33.33,0,0,0-.54.14,1.74,1.74,0,0,0,.08,1.48,9.35,9.35,0,0,0-6.49,1A5.38,5.38,0,0,0,235.7,40a3.21,3.21,0,0,0-1.75.31,2.94,2.94,0,0,0-1.66,3.14,2.61,2.61,0,0,0,3.22,1.73,4.08,4.08,0,0,0,1.86-.87c-.4.67-.6,1.53.7,1.83,2.26.52,3.33-.83,3.47.3.12.92,1.39,1.43,2.3,1.45.07.14.24.51.44,1a2.72,2.72,0,0,1,1.41-.08.34.34,0,0,1,.55.06c.78,1.34.6,2.8.3,4.35a12.39,12.39,0,0,0,3-3.75A11.06,11.06,0,0,0,250.84,43.24Zm-6.4-6.59.09.14a.32.32,0,0,0,0,.1.994.994,0,0,0,.12.31,1.18,1.18,0,0,1-.21-.55Z" fill="#5c2e2e"/>
    <path id="Path_488" data-name="Path 488" d="M268.77,102l28.69,16.73a1.76,1.76,0,0,1,.87,1.52h0a1.76,1.76,0,0,1-2.65,1.52L267,105.14a1.76,1.76,0,0,1-.88-1.52v-.1a1.76,1.76,0,0,1,2.65-1.52Z" fill="#fdc49a"/>
    <path id="Path_489" data-name="Path 489" d="M268.77,111l28.69,16.73a1.76,1.76,0,0,1,.87,1.52h0a1.76,1.76,0,0,1-2.65,1.52L267,114.19a1.76,1.76,0,0,1-.88-1.52v-.1a1.76,1.76,0,0,1,2.65-1.57Z" fill="#fdc49a"/>
    <path id="Path_490" data-name="Path 490" d="M268.77,120.09l28.69,16.73a1.76,1.76,0,0,1,.87,1.52h0a1.76,1.76,0,0,1-2.65,1.52L267,123.23a1.76,1.76,0,0,1-.88-1.52v-.1a1.76,1.76,0,0,1,2.65-1.52Z" fill="#fdc49a"/>
    <path id="Path_491" data-name="Path 491" d="M268.77,129.13l28.69,16.73a1.76,1.76,0,0,1,.87,1.52h0a1.76,1.76,0,0,1-2.65,1.52L267,132.28a1.76,1.76,0,0,1-.88-1.52v-.1a1.76,1.76,0,0,1,2.65-1.53Z" fill="#faedd4"/>
    <path id="Path_492" data-name="Path 492" d="M196.75,70.72V99.68L174.34,86.84V58.13Z" fill="#e35541"/>
    <path id="Path_493" data-name="Path 493" d="M176.93,86.84v7.08l5.71-4.97Z" fill="#e35541"/>
    <path id="Path_494" data-name="Path 494" d="M183.18,73.65l-5,3.08a.68.68,0,0,0-.24.93l3.9,5.31c.51.7,1.69,0,1.17-.68L179.06,77l-.24.93,5-3.08c.74-.45.06-1.63-.68-1.17Z" fill="#fff"/>
    <path id="Path_495" data-name="Path 495" d="M186.57,76.39l4.15,5.87.24-.93-5.08,2.54c-.78.39-.09,1.56.68,1.17l5.08-2.54a.68.68,0,0,0,.24-.93l-4.15-5.87c-.5-.71-1.68,0-1.17.68Z" fill="#fff"/>
    <ellipse id="Ellipse_31" data-name="Ellipse 31" cx="1.61" cy="1.75" rx="1.61" ry="1.75" transform="translate(295.76 105.18)" fill="#155a93"/>
    <ellipse id="Ellipse_32" data-name="Ellipse 32" cx="1.61" cy="1.75" rx="1.61" ry="1.75" transform="translate(290.62 102.55)" fill="#659fe4"/>
    <ellipse id="Ellipse_33" data-name="Ellipse 33" cx="1.61" cy="1.75" rx="1.61" ry="1.75" transform="translate(285.48 100)" fill="#c5e9ff"/>
    <path id="Path_496" data-name="Path 496" d="M127.47,124.4l35.22,19.97,12.84-6.6" fill="none" stroke="#fff" stroke-miterlimit="10" stroke-width="1"/>
    <line id="Line_7" data-name="Line 7" y2="8.07" transform="translate(162.58 144.66)" fill="none" stroke="#fff" stroke-miterlimit="10" stroke-width="1"/>
    <path id="Path_497" data-name="Path 497" d="M137.3,138a4.27,4.27,0,0,1-2-.95,3.7,3.7,0,0,1-.42-2.16V132.8a.35.35,0,0,1-.13-.26,12.551,12.551,0,0,1,0-1.7l-2.86-.28a51.647,51.647,0,0,0-1.19,5.45c.08.56,2.8,4.28,4.19,4.53s5.23-1,5.55-1.49h0C139.4,138.74,138.34,138.41,137.3,138Z" fill="#fbb5ad"/>
    <path id="Path_498" data-name="Path 498" d="M157.08,127.84a28.621,28.621,0,0,0-4.85.45s-.55-3.19-.47-3.35l-4.07.28s-.51,5.92-.51,6.7c0,1.43,1.78,1.89,2.17,1.83a7,7,0,0,0,.82-.34,11.819,11.819,0,0,1-.23-2.24.647.647,0,0,1,.42-.71,5.39,5.39,0,0,1,2.33.21c.73.14,1.45.31,2.18.44a10.76,10.76,0,0,0,3.07-2C158.2,128.32,158.53,128.13,157.08,127.84Z" fill="#fbb5ad"/>
    <path id="Path_499" data-name="Path 499" d="M158.44,128.1l-.1-.11c-.31-.3-1.13-.27-1.51-.29a19.22,19.22,0,0,0-4.6.59s3.69-.5,3.83.16a1.76,1.76,0,0,1-.37,1.52c-1.54,1.37-3.95-.14-5.45-.79l-2.79-1.2-.18,2.27a16.828,16.828,0,0,0,0,3.12c.19.32,1.84,1.19,2.19,1s1.43-.83,1.43-.83l-.22-2.74s2.3,1,3.39.72C154.89,131.32,159.4,129.38,158.44,128.1Z" fill="#56403d"/>
    <path id="Path_500" data-name="Path 500" d="M133.35,136.13s1.5,4.68,2,5,6.3-1.53,5.44-2.63c-.55-.7-4-.69-4.33-.78,0,0,1.83.6,1.83.89a4.75,4.75,0,0,1-2.42,1.14c-.12-.22-2.62-4.32-2.62-4.32l-2.35-.83-1.9,4.29,1.64.7s.5,1.31.67,1.31a19,19,0,0,0,1.51-2.41,6.36,6.36,0,0,0,.57,1.71c.23.17,2.14,1.74,3,.54l-1.61-1.81" fill="#56403d"/>
    <path id="Path_501" data-name="Path 501" d="M129,138.89l.3,1.07,2.01.94v-2.01l-1.16-.4" fill="#56403d"/>
    <path id="Path_502" data-name="Path 502" d="M145.31,126.83a11.73,11.73,0,0,0,10.17-2.41c.06-6,.62-11.47.44-17.49-.29-9.83-1.72-19.48-8.62-27.15l-12.56-1.93c-5.1,9.7-6.14,54.07-6.14,54.07S135,136,139.87,134l1.89-37s3.33,3.94,3.93,6.14C146.13,104.8,145.23,119.4,145.31,126.83Z" fill="#999a1c"/>
    <ellipse id="Ellipse_34" data-name="Ellipse 34" cx="22.17" cy="10.96" rx="22.17" ry="10.96" transform="translate(69.98 91.9)" fill="#6de1fc"/>
    <ellipse id="Ellipse_35" data-name="Ellipse 35" cx="22.17" cy="10.96" rx="22.17" ry="10.96" transform="translate(69.98 91.9)" fill="#663535"/>
    <path id="Path_503" data-name="Path 503" d="M325.77,208.39,307.85,219s5.55,9.74,19.24,15.49L348,223.28" fill="url(#linear-gradient-4)"/>
    <ellipse id="Ellipse_36" data-name="Ellipse 36" cx="16.62" cy="11.71" rx="16.62" ry="11.71" transform="translate(324.1 200.7)" fill="#472e8b"/>
    <ellipse id="Ellipse_37" data-name="Ellipse 37" cx="12.45" cy="5.1" rx="12.45" ry="5.1" transform="translate(328.26 200.4)" fill="#974c26"/>
    <path id="Path_504" data-name="Path 504" d="M340.25,197c0-2.3-.08-4.6-.26-6.89q-.07-.89-.16-1.78l-.13-1.17c-.05-.34-.18-1.23-.18-1.19l-.24-1.4a54.89,54.89,0,0,0-8.89-21.74,31.79,31.79,0,0,0-2.47,12.73c0,1.26.1,2.52.21,3.78v.53c0,.05,0-.08.05.21.1.62.22,1.24.34,1.85a50.243,50.243,0,0,0,2,6.9,42,42,0,0,0,2.69,6q1.695,3.255,3.68,6.35c1,1.61,2,3.06,3,4.43C340.11,202.75,340.25,199.87,340.25,197Zm-6.54-25.85a2.071,2.071,0,0,0-.06-.89h0q.48.49.93,1A2.85,2.85,0,0,0,333.71,171.15Z" fill="#999a1c"/>
    <path id="Path_505" data-name="Path 505" d="M344.54,198.77q1.875-2.895,3.51-5.94.42-.79.83-1.59l.52-1.06.49-1.1q.28-.65.55-1.31a54.889,54.889,0,0,0,4.27-23.09,31.791,31.791,0,0,0-9,9.37c-.67,1.07-1.28,2.17-1.87,3.29l-.25.47s0-.06-.07.21c-.25.58-.49,1.16-.71,1.74a50.237,50.237,0,0,0-2.07,6.87,42.007,42.007,0,0,0-1,6.51c-.23,2.44-.33,4.89-.34,7.33,0,1.91,0,3.66.12,5.34A85.793,85.793,0,0,0,344.54,198.77ZM353,173.49a2.07,2.07,0,0,0,.43-.78h0q.14.67.24,1.35A2.85,2.85,0,0,0,353,173.49Z" fill="#999a1c"/>
    <path id="Path_506" data-name="Path 506" d="M344.45,204.5q1.94-1,3.81-2.07l1-.59.62-.4.62-.43.72-.53a34.52,34.52,0,0,0,9.76-11.08,20,20,0,0,0-7.86,2.17c-.71.36-1.39.76-2.07,1.17l-.29.17-.1.09c-.32.23-.64.47-.95.71a31.6,31.6,0,0,0-3.34,3,26.378,26.378,0,0,0-2.64,3.19c-.91,1.24-1.76,2.53-2.55,3.85-.62,1-1.16,2-1.66,2.92C341.17,206,342.82,205.31,344.45,204.5Zm12.73-10.91a1.3,1.3,0,0,0,.49-.28h0q-.14.41-.3.81a1.789,1.789,0,0,0-.19-.53Z" fill="#999a1c"/>
    <path id="Path_507" data-name="Path 507" d="M340.25,197c0-2.3-.08-4.6-.26-6.89q-.07-.89-.16-1.78l-.13-1.17c-.05-.34-.18-1.23-.18-1.19l-.24-1.4a54.89,54.89,0,0,0-8.89-21.74,31.79,31.79,0,0,0-2.47,12.73c0,1.26.1,2.52.21,3.78v.53c0,.05,0-.08.05.21.1.62.22,1.24.34,1.85a50.243,50.243,0,0,0,2,6.9,42,42,0,0,0,2.69,6q1.695,3.255,3.68,6.35c1,1.61,2,3.06,3,4.43C340.11,202.75,340.25,199.87,340.25,197Zm-6.54-25.85a2.071,2.071,0,0,0-.06-.89h0q.48.49.93,1A2.85,2.85,0,0,0,333.71,171.15Z" fill="#999a1c"/>
    <path id="Path_508" data-name="Path 508" d="M344.54,198.77q1.875-2.895,3.51-5.94.42-.79.83-1.59l.52-1.06.49-1.1q.28-.65.55-1.31a54.889,54.889,0,0,0,4.27-23.09,31.791,31.791,0,0,0-9,9.37c-.67,1.07-1.28,2.17-1.87,3.29l-.25.47s0-.06-.07.21c-.25.58-.49,1.16-.71,1.74a50.237,50.237,0,0,0-2.07,6.87,42.007,42.007,0,0,0-1,6.51c-.23,2.44-.33,4.89-.34,7.33,0,1.91,0,3.66.12,5.34A85.793,85.793,0,0,0,344.54,198.77ZM353,173.49a2.07,2.07,0,0,0,.43-.78h0q.14.67.24,1.35A2.85,2.85,0,0,0,353,173.49Z" fill="#999a1c"/>
    <path id="Path_509" data-name="Path 509" d="M344.45,204.5q1.94-1,3.81-2.07l1-.59.62-.4.62-.43.72-.53a34.52,34.52,0,0,0,9.76-11.08,20,20,0,0,0-7.86,2.17c-.71.36-1.39.76-2.07,1.17l-.29.17-.1.09c-.32.23-.64.47-.95.71a31.6,31.6,0,0,0-3.34,3,26.378,26.378,0,0,0-2.64,3.19c-.91,1.24-1.76,2.53-2.55,3.85-.62,1-1.16,2-1.66,2.92C341.17,206,342.82,205.31,344.45,204.5Zm12.73-10.91a1.3,1.3,0,0,0,.49-.28h0q-.14.41-.3.81a1.789,1.789,0,0,0-.19-.53Z" fill="#999a1c"/>
  </g>
</svg>
