<svg xmlns="http://www.w3.org/2000/svg" width="436.011" height="282.921" viewBox="0 0 436.011 282.921">
  <g id="code_development__1_" data-name="code_development_ (1)" transform="translate(-34.56 -53.5)">
    <path id="Path_82" data-name="Path 82" d="M292,155.381s20.019-3.24,18.669,9H292Z" transform="translate(90.073 35.51)" fill="#f4a28c"/>
    <path id="Path_83" data-name="Path 83" d="M260.647,139.917l-6.047,29.36h33.963l-4.63-33.747Z" transform="translate(76.988 28.701)" fill="#c9c9c9"/>
    <rect id="Rectangle_25" data-name="Rectangle 25" width="134.732" height="91.508" transform="translate(281.467 73.843)" fill="#24285b"/>
    <rect id="Rectangle_26" data-name="Rectangle 26" width="42.386" height="3.982" transform="translate(328.807 134.344)" fill="#472e8b"/>
    <rect id="Rectangle_27" data-name="Rectangle 27" width="42.386" height="3.982" transform="translate(347.692 144.792)" fill="#ffd200"/>
    <rect id="Rectangle_28" data-name="Rectangle 28" width="134.732" height="17.319" transform="translate(281.467 157.481)" fill="#e6e6e6"/>
    <rect id="Rectangle_29" data-name="Rectangle 29" width="35.569" height="3.982" transform="translate(318.602 124.72)" fill="#472e8b"/>
    <rect id="Rectangle_30" data-name="Rectangle 30" width="35.569" height="3.982" transform="translate(361.568 124.72)" fill="#472e8b"/>
    <rect id="Rectangle_31" data-name="Rectangle 31" width="31.803" height="3.982" transform="translate(328.807 113.637)" fill="#ffd200"/>
    <rect id="Rectangle_32" data-name="Rectangle 32" width="31.803" height="3.982" transform="translate(368.885 113.637)" fill="#ffd200"/>
    <rect id="Rectangle_33" data-name="Rectangle 33" width="15.942" height="3.982" transform="translate(305.413 134.344)" fill="#fff"/>
    <rect id="Rectangle_34" data-name="Rectangle 34" width="15.942" height="3.982" transform="translate(321.288 144.792)" fill="#fff"/>
    <rect id="Rectangle_35" data-name="Rectangle 35" width="15.942" height="3.982" transform="translate(295.208 124.72)" fill="#fff"/>
    <path id="Path_84" data-name="Path 84" d="M230.51,92.408s65.82-6.614,51.3,68.844l5.008,18.4L266.268,168.5l1.647-7.235h-10.88Z" transform="translate(68.559 13.562)" opacity="0.14"/>
    <circle id="Ellipse_11" data-name="Ellipse 11" cx="1.876" cy="1.876" r="1.876" transform="translate(297.193 80.957)" fill="#472e8b"/>
    <circle id="Ellipse_12" data-name="Ellipse 12" cx="1.876" cy="1.876" r="1.876" transform="translate(302.457 80.957)" fill="#ffd200"/>
    <rect id="Rectangle_36" data-name="Rectangle 36" width="15.942" height="3.982" transform="translate(295.208 94.442)" fill="#fff"/>
    <rect id="Rectangle_37" data-name="Rectangle 37" width="15.942" height="3.982" transform="translate(305.413 104.404)" fill="#fff"/>
    <rect id="Rectangle_38" data-name="Rectangle 38" width="31.803" height="3.982" transform="translate(328.807 104.404)" fill="#ffd200"/>
    <rect id="Rectangle_39" data-name="Rectangle 39" width="31.803" height="3.982" transform="translate(368.885 104.404)" fill="#ffd200"/>
    <rect id="Rectangle_40" data-name="Rectangle 40" width="15.942" height="3.982" transform="translate(305.413 113.637)" fill="#fff"/>
    <rect id="Rectangle_41" data-name="Rectangle 41" width="32.843" height="3.982" transform="translate(317.522 94.442)" fill="#472e8b"/>
    <rect id="Rectangle_42" data-name="Rectangle 42" width="23.312" height="3.982" transform="translate(357.235 94.442)" fill="#472e8b"/>
    <circle id="Ellipse_13" data-name="Ellipse 13" cx="5.008" cy="5.008" r="5.008" transform="translate(345.356 160.518)" fill="#a5a5a5"/>
    <rect id="Rectangle_43" data-name="Rectangle 43" width="67.723" height="4.725" transform="translate(92.038 193.253)" fill="#c9c9c9"/>
    <path id="Path_85" data-name="Path 85" d="M102,155.381s-20.019-3.24-18.669,9H102Z" transform="translate(17.04 35.51)" fill="#f4a28c"/>
    <path id="Path_86" data-name="Path 86" d="M126.287,139.917l-6.047,29.36H154.2l-4.63-33.747Z" transform="translate(29.978 28.701)" fill="#c9c9c9"/>
    <rect id="Rectangle_44" data-name="Rectangle 44" width="134.732" height="91.508" transform="translate(94.454 73.843)" fill="#24285b"/>
    <rect id="Rectangle_45" data-name="Rectangle 45" width="42.386" height="3.982" transform="translate(141.794 134.344)" fill="#472e8b"/>
    <rect id="Rectangle_46" data-name="Rectangle 46" width="134.732" height="17.319" transform="translate(94.454 157.481)" fill="#e6e6e6"/>
    <rect id="Rectangle_47" data-name="Rectangle 47" width="35.569" height="3.982" transform="translate(131.589 124.72)" fill="#472e8b"/>
    <rect id="Rectangle_48" data-name="Rectangle 48" width="31.803" height="3.982" transform="translate(141.794 113.637)" fill="#ffd200"/>
    <rect id="Rectangle_49" data-name="Rectangle 49" width="15.942" height="3.982" transform="translate(118.401 134.344)" fill="#fff"/>
    <rect id="Rectangle_50" data-name="Rectangle 50" width="15.942" height="3.982" transform="translate(134.276 144.792)" fill="#fff"/>
    <rect id="Rectangle_51" data-name="Rectangle 51" width="15.942" height="3.982" transform="translate(108.196 124.72)" fill="#fff"/>
    <circle id="Ellipse_14" data-name="Ellipse 14" cx="1.876" cy="1.876" r="1.876" transform="translate(104.605 80.957)" fill="#fff"/>
    <circle id="Ellipse_15" data-name="Ellipse 15" cx="1.876" cy="1.876" r="1.876" transform="translate(110.18 80.957)" fill="#472e8b"/>
    <circle id="Ellipse_16" data-name="Ellipse 16" cx="1.876" cy="1.876" r="1.876" transform="translate(115.445 80.957)" fill="#ffd200"/>
    <rect id="Rectangle_52" data-name="Rectangle 52" width="15.942" height="3.982" transform="translate(108.196 94.442)" fill="#fff"/>
    <rect id="Rectangle_53" data-name="Rectangle 53" width="15.942" height="3.982" transform="translate(118.401 104.404)" fill="#fff"/>
    <rect id="Rectangle_54" data-name="Rectangle 54" width="31.803" height="3.982" transform="translate(141.794 104.404)" fill="#ffd200"/>
    <rect id="Rectangle_55" data-name="Rectangle 55" width="15.942" height="3.982" transform="translate(118.401 113.637)" fill="#fff"/>
    <rect id="Rectangle_56" data-name="Rectangle 56" width="32.843" height="3.982" transform="translate(130.509 94.442)" fill="#472e8b"/>
    <ellipse id="Ellipse_17" data-name="Ellipse 17" cx="218.006" cy="28.253" rx="218.006" ry="28.253" transform="translate(34.56 279.915)" fill="#e6e6e6" opacity="0.45"/>
    <path id="Path_87" data-name="Path 87" d="M197.679,90.14s-46.989,3.226-50.593,29.319c-2,14.5,1.971,27.605,5.9,36.447a9.449,9.449,0,0,1-7.4,13.215L97.14,175.871v11.271l67.413-2a27.929,27.929,0,0,0,27-25.472Z" transform="translate(21.895 12.82)" fill="#472e8b"/>
    <path id="Path_88" data-name="Path 88" d="M217.47,90.14s46.989,3.226,50.593,29.319c2,14.5-1.971,27.605-5.9,36.447a9.449,9.449,0,0,0,7.4,13.215l48.447,6.749v11.271l-67.427-2.065a27.942,27.942,0,0,1-27-25.472Z" transform="translate(63.997 12.82)" fill="#472e8b"/>
    <path id="Path_89" data-name="Path 89" d="M197.679,90.14s-46.989,3.226-50.593,29.319c-2,14.5,1.971,27.605,5.9,36.447a9.449,9.449,0,0,1-7.4,13.215L97.14,175.871v11.271l67.413-2a27.929,27.929,0,0,0,27-25.472Z" transform="translate(21.895 12.82)" fill="#fff" opacity="0.46"/>
    <path id="Path_90" data-name="Path 90" d="M217.47,90.14s46.989,3.226,50.593,29.319c2,14.5-1.971,27.605-5.9,36.447a9.449,9.449,0,0,0,7.4,13.215l48.447,6.749v11.271l-67.427-2.065a27.942,27.942,0,0,1-27-25.472Z" transform="translate(63.997 12.82)" fill="#fff" opacity="0.46"/>
    <rect id="Rectangle_57" data-name="Rectangle 57" width="354.343" height="99.783" transform="translate(74.044 208.399)" fill="#c9c9c9"/>
    <rect id="Rectangle_58" data-name="Rectangle 58" width="354.343" height="24.392" transform="translate(74.044 197.978)" fill="#e6e6e6"/>
    <path id="Path_91" data-name="Path 91" d="M191.33,99.06l5.737-25.013s.189-11.717,7.708-8.99,9.773,16.307,5.723,20.9-6.749-1.674-6.749-1.674V98.115Z" transform="translate(54.851 3.899)" fill="#f4a28c"/>
    <path id="Path_92" data-name="Path 92" d="M297.965,165.1s-31.142,6.628-18.129,19.2,5.831,30.237-3.186,35.34-46.368,11.258-34.435,54.306h-42.1l-3.1-22.948-27-28.509,11.8-27.5L215,149.86,237.49,168.5l12.311-4.239Z" transform="translate(47.391 33.714)" opacity="0.1"/>
    <path id="Path_93" data-name="Path 93" d="M199.658,89.643S152.817,85.472,146.7,117.1s37.473,91.319,37.473,91.319l60.745-2.362S339.29,73.5,199.658,89.643Z" transform="translate(39.031 12.169)" fill="#472e8b"/>
    <path id="Path_94" data-name="Path 94" d="M190,226.006s2.7,3.564.931,6.938.783,6.236,3.456,3.888,3.78-12.149,3.78-12.149l-6.034-3.523Z" transform="translate(54.385 58.661)" fill="#472e8b"/>
    <path id="Path_95" data-name="Path 95" d="M174.542,177.949s-4.05,21.261,5.062,22.273,73.568,3.888,84.367-5.143,8.1-21.517-28.685-19.492Z" transform="translate(48.663 42.639)" fill="#24285b"/>
    <path id="Path_96" data-name="Path 96" d="M178.534,180s-28.158,22-13.647,38.2,35.434,25.648,35.434,25.648l3.037-7.762S159.487,202,201,195.254Z" transform="translate(44.145 44.26)" fill="#24285b"/>
    <path id="Path_510" data-name="Path 510" d="M22.88,0H55.454a22.88,22.88,0,0,1,22.88,22.88V38.89a22.88,22.88,0,0,1-22.88,22.88H22.88A22.88,22.88,0,0,1,0,38.89V22.88A22.88,22.88,0,0,1,22.88,0Z" transform="translate(211.273 152.649)" fill="#ffd200"/>
    <rect id="Rectangle_60" data-name="Rectangle 60" width="15.416" height="61.865" transform="translate(242.387 183.534)" fill="#ffd200"/>
    <rect id="Rectangle_61" data-name="Rectangle 61" width="15.416" height="61.865" transform="translate(242.387 183.534)" opacity="0.08"/>
    <rect id="Rectangle_62" data-name="Rectangle 62" width="61.892" height="18.48" transform="translate(219.575 237.718)" fill="#ffd200"/>
    <path id="Path_97" data-name="Path 97" d="M193.742,84.776l.095-5.926a10.151,10.151,0,0,0-2.889-7.4,3.78,3.78,0,0,1-.648-5.319c3.1-4.441,5.723-1.566,8.855-5.494s5.494-4.7,9.152,0,6.533-.783,8.626,4.968.256,8.626-7.843,9.152c-6.884.445-4.752,8.248-11.137,12.351a2.7,2.7,0,0,1-4.212-2.335Z" transform="translate(54.207 1.364)" fill="#24285b"/>
    <rect id="Rectangle_63" data-name="Rectangle 63" width="9.827" height="42.697" transform="translate(245.195 256.184)" fill="#ffd200"/>
    <rect id="Rectangle_64" data-name="Rectangle 64" width="9.827" height="42.697" transform="translate(245.195 256.184)" opacity="0.08"/>
    <path id="Path_98" data-name="Path 98" d="M195.526,235.28,176.52,252.828h49.325l-20.5-17.548Z" transform="translate(49.669 63.601)" fill="#ffd200"/>
    <rect id="Rectangle_65" data-name="Rectangle 65" width="36.447" height="63.107" transform="translate(374.163 231.05)" fill="#a5a5a5"/>
    <rect id="Rectangle_66" data-name="Rectangle 66" width="8.545" height="85.812" transform="translate(357.073 222.37)" fill="#e6e6e6"/>
    <rect id="Rectangle_67" data-name="Rectangle 67" width="8.545" height="85.812" transform="translate(419.843 222.37)" fill="#e6e6e6"/>
    <rect id="Rectangle_68" data-name="Rectangle 68" width="63.62" height="14.012" transform="translate(364.781 294.157)" fill="#e6e6e6"/>
    <rect id="Rectangle_69" data-name="Rectangle 69" width="17.994" height="85.812" transform="translate(74.044 222.37)" fill="#e6e6e6"/>
    <rect id="Rectangle_70" data-name="Rectangle 70" width="51.295" height="10.246" transform="translate(92.038 283.911)" fill="#a5a5a5" opacity="0.42"/>
    <rect id="Rectangle_71" data-name="Rectangle 71" width="77.267" height="14.417" transform="translate(92.038 293.752)" fill="#a5a5a5"/>
    <rect id="Rectangle_72" data-name="Rectangle 72" width="23.312" height="3.982" transform="translate(170.223 94.442)" fill="#472e8b"/>
    <circle id="Ellipse_18" data-name="Ellipse 18" cx="5.008" cy="5.008" r="5.008" transform="translate(161.827 160.518)" fill="#a5a5a5"/>
    <circle id="Ellipse_19" data-name="Ellipse 19" cx="1.876" cy="1.876" r="1.876" transform="translate(291.618 80.957)" fill="#fff"/>
    <rect id="Rectangle_73" data-name="Rectangle 73" width="52.308" height="35.961" transform="translate(387.689 53.5)" fill="#ffd200"/>
    <path id="Path_99" data-name="Path 99" d="M312.664,75.914a1.188,1.188,0,0,1-.742-.256l-7.8-6.2a1.228,1.228,0,0,1-.459-.945,1.242,1.242,0,0,1,.445-.958l7.843-6.3a1.215,1.215,0,0,1,1.525,1.89l-6.668,5.4,6.655,5.251a1.2,1.2,0,0,1,.2,1.7,1.188,1.188,0,0,1-1,.418Z" transform="translate(94.153 2.627)" fill="#fff"/>
    <path id="Path_100" data-name="Path 100" d="M321.187,75.948a1.188,1.188,0,0,1-.945-.459,1.2,1.2,0,0,1,.2-1.7l6.641-5.251-6.655-5.4a1.215,1.215,0,1,1,1.512-1.89l7.856,6.3a1.242,1.242,0,0,1,.445.958,1.228,1.228,0,0,1-.459.945l-7.843,6.2a1.215,1.215,0,0,1-.756.3Z" transform="translate(99.83 2.593)" fill="#fff"/>
    <path id="Path_101" data-name="Path 101" d="M313.475,75.922a1.174,1.174,0,0,1-.513-.108,1.215,1.215,0,0,1-.594-1.606l5.71-12.513a1.217,1.217,0,1,1,2.214,1.012L314.609,75.22A1.188,1.188,0,0,1,313.475,75.922Z" transform="translate(97.161 2.618)" fill="#fff"/>
    <path id="Path_102" data-name="Path 102" d="M97.926,216.83s-12.432-3.4-15.146-14.97c0,0,19.276-3.888,19.816,16Z" transform="translate(16.871 51.801)" fill="#472e8b" opacity="0.58"/>
    <path id="Path_103" data-name="Path 103" d="M96.166,218.889s-8.693-13.742-1.039-26.579c0,0,14.646,9.3,8.1,26.606Z" transform="translate(20.088 48.567)" fill="#472e8b" opacity="0.73"/>
    <path id="Path_104" data-name="Path 104" d="M96.74,216.471s4.59-14.5,18.466-17.251c0,0,2.592,9.449-8.99,17.292Z" transform="translate(21.756 50.985)" fill="#472e8b"/>
    <path id="Path_105" data-name="Path 105" d="M90.06,211.72l2.511,17.251,15.875.068,2.349-17.224Z" transform="translate(19.418 55.358)" fill="#24285b"/>
    <circle id="Ellipse_20" data-name="Ellipse 20" cx="4.671" cy="4.671" r="4.671" transform="translate(393.884 240.823)" fill="#fff"/>
    <rect id="Rectangle_74" data-name="Rectangle 74" width="25.418" height="31.898" transform="translate(380.386 256.184)" fill="#fff" opacity="0.18"/>
  </g>
</svg>
